<?xml version="1.0" encoding="UTF-8"?>
<svg version="1.1" xmlns="http://www.w3.org/2000/svg" width="512" height="512">
<path d="M0 0 C3.5731886 2.79029896 6.8158426 5.77639286 10 9 C10.63550781 9.61359375 11.27101563 10.2271875 11.92578125 10.859375 C23.45527942 22.82346623 28.011157 39.5912376 28.05712891 55.80517578 C27.62479701 72.4148498 20.42956585 88.02093579 9 100 C6.4171632 102.44573416 3.77304404 104.77271462 1 107 C1.92039062 107.3403125 2.84078125 107.680625 3.7890625 108.03125 C17.25062903 113.13334327 29.06900344 119.49635671 40 129 C40.83144531 129.69867188 41.66289062 130.39734375 42.51953125 131.1171875 C48.8059114 136.54413933 53.92308297 142.43924973 59 149 C62.26591005 148.2107551 62.26591005 148.2107551 64.375 145.0625 C73.08256857 134.64756504 84.88119489 128.56936102 97 123 C96.13375 122.030625 95.2675 121.06125 94.375 120.0625 C85.01100968 109.02005858 79.50455076 96.75453459 79.7265625 82.03515625 C81.16734255 66.04249773 87.62432464 53.4077401 100 43 C111.75646521 34.41740479 125.06236846 31.90859249 139.4375 33.5 C152.58490639 35.89765503 163.79451482 43.15645804 172.02734375 53.5625 C180.30969299 65.60955345 182.56608307 78.67336452 181 93 C178.6280083 104.81998113 172.15873448 114.35850016 164 123 C165.00417969 123.46148437 166.00835937 123.92296875 167.04296875 124.3984375 C189.63138618 135.05963747 205.81850287 150.99373246 216 174 C216.3403125 174.73347656 216.680625 175.46695313 217.03125 176.22265625 C220.03715521 183.66783813 220.37844217 192.75699677 218.34375 200.49609375 C214.9485808 208.00351529 209.06668888 212.91341597 201.64772224 216.13665009 C196.89476508 217.68645961 192.19479458 217.52124394 187.23803711 217.45410156 C186.09555511 217.45468567 184.95307312 217.45526978 183.77597046 217.45587158 C180.02611157 217.45310052 176.27706258 217.42205321 172.52734375 217.390625 C169.91704238 217.38315917 167.30673538 217.37746786 164.69642639 217.37347412 C158.54483478 217.36108628 152.39353058 217.3283223 146.24206501 217.28807616 C139.23356606 217.24322701 132.22505274 217.22133855 125.2164458 217.20129442 C110.81081623 217.1595853 96.40541214 217.08931575 82 217 C82.00589142 217.57640228 82.01178284 218.15280457 82.01785278 218.74667358 C82.04136597 221.38058063 82.05591421 224.0144655 82.0703125 226.6484375 C82.07973877 227.5552124 82.08916504 228.4619873 82.09887695 229.39624023 C82.12485065 235.73093679 81.76153649 241.20392341 79 247 C78.60941406 247.8353125 78.21882813 248.670625 77.81640625 249.53125 C73.0187025 258.5558259 65.64859476 264.44930325 56.19696045 268.13795471 C49.46278654 269.95379291 42.42559753 269.55358854 35.5 269.51757812 C33.74136782 269.52300613 31.9827402 269.53013258 30.22412109 269.53881836 C25.47201273 269.55697401 20.72025372 269.55001638 15.96813965 269.53730202 C10.98135476 269.527134 5.99459863 269.53657822 1.0078125 269.54284668 C-7.36463763 269.55011204 -15.73694636 269.54056459 -24.109375 269.52148438 C-33.77181328 269.4997178 -43.43391389 269.50676996 -53.09634399 269.52879 C-61.41088743 269.5469757 -69.72532956 269.54948683 -78.03988647 269.53903532 C-82.99767589 269.53281781 -87.95530687 269.53191665 -92.91308594 269.54518127 C-97.57541615 269.55678539 -102.23731344 269.54863115 -106.89959717 269.52560425 C-108.60470869 269.52034143 -110.30985702 269.52178907 -112.01495361 269.53065491 C-125.48537431 269.5942074 -136.00747794 267.74366615 -146 258 C-152.15937341 250.40164633 -156.16151762 242.03523138 -156.09765625 232.13671875 C-156.09443359 231.25048828 -156.09121094 230.36425781 -156.08789062 229.45117188 C-156.07951172 228.53916016 -156.07113281 227.62714844 -156.0625 226.6875 C-156.05798828 225.75615234 -156.05347656 224.82480469 -156.04882812 223.86523438 C-156.03709234 221.57675627 -156.02067363 219.28841192 -156 217 C-156.89203581 217.00553076 -156.89203581 217.00553076 -157.80209255 217.01117325 C-172.30080062 217.09967517 -186.79949267 217.1657828 -201.29840755 217.20724869 C-208.3101213 217.22783653 -215.32165427 217.25588423 -222.33325195 217.30175781 C-229.10245534 217.34602425 -235.87147096 217.36915198 -242.64081001 217.37950897 C-245.22073888 217.38688793 -247.80065771 217.40129726 -250.38050652 217.42292023 C-253.9999074 217.45204404 -257.61853751 217.45595207 -261.23803711 217.45410156 C-262.29971603 217.46848267 -263.36139496 217.48286377 -264.45524597 217.49768066 C-272.1074198 217.45547009 -278.02692436 215.87210287 -284.26953125 211.359375 C-290.39196508 204.97344402 -293.1993566 200.0047226 -293.625 191 C-293.06726694 171.69089694 -280.68713838 153.85576031 -267.15625 140.84765625 C-258.21018887 133.18191908 -248.90707201 127.45704272 -238 123 C-238.74443359 122.25169922 -238.74443359 122.25169922 -239.50390625 121.48828125 C-251.31374583 109.00615479 -255.69365965 96.30323148 -255.30859375 79.546875 C-254.65730655 66.58598954 -248.53988997 54.47380725 -239.07421875 45.625 C-226.96278542 36.13657012 -214.14194424 32.05579048 -198.78515625 33.25 C-187.74220214 34.84177717 -179.3593936 38.63874295 -171 46 C-170.3709375 46.5465625 -169.741875 47.093125 -169.09375 47.65625 C-158.87820917 57.15491077 -154.08109313 70.36586558 -153.5625 84.1875 C-154.34815107 99.76957949 -160.29089923 111.03425411 -171 122 C-167.96691533 124.45090491 -164.91059975 126.05963152 -161.375 127.6875 C-155.18503587 130.72976948 -150.18668595 134.49210852 -145 139 C-144.23171875 139.64710938 -143.4634375 140.29421875 -142.671875 140.9609375 C-139.64370407 143.54250768 -137.22195521 145.66706718 -135 149 C-134.34 149 -133.68 149 -133 149 C-131.54597658 147.3623728 -130.16151322 145.66265804 -128.8125 143.9375 C-114.67311577 126.36970724 -96.30213546 114.25877561 -75 107 C-75.71285156 106.39414062 -76.42570313 105.78828125 -77.16015625 105.1640625 C-91.44261005 92.66931826 -100.42446879 77.19648645 -102 58 C-102.79142324 40.84462171 -97.72256052 24.00288746 -86.375 10.87109375 C-64.07573872 -13.48119957 -27.55826039 -18.42052142 0 0 Z M-74 23 C-81.8345904 33.40689154 -85.90609184 45.82389168 -84.74609375 58.8515625 C-82.41335701 73.77267141 -75.06214679 84.9730993 -63 94 C-51.60844416 100.96936802 -39.13818452 102.82274446 -26.0234375 100.46484375 C-23.60006937 99.77834782 -21.32386467 98.96827695 -19 98 C-18.3296875 97.74476563 -17.659375 97.48953125 -16.96875 97.2265625 C-5.31721587 92.18681162 3.67562618 81.25131629 8.375 69.6875 C12.27796866 57.65757064 11.61569104 45.65744657 6.7421875 33.98828125 C0.53940556 21.83692974 -8.83624126 12.63758206 -21.875 8.125 C-41.28843084 2.29358922 -60.37480646 8.2197295 -74 23 Z M-229 60 C-231.31758754 62.85200841 -233.22396828 65.78543791 -235 69 C-235.34160156 69.61488281 -235.68320313 70.22976563 -236.03515625 70.86328125 C-239.5630433 78.52618009 -239.26744299 88.38333094 -236.5625 96.25 C-232.05917188 105.84129884 -224.77229687 112.20750212 -215 116 C-207.10305881 118.63231373 -197.80200082 117.83492226 -190.3125 114.32421875 C-180.88183475 108.92388848 -175.29094029 102.89194633 -172.1875 92.4375 C-170.02572742 83.44452607 -170.94149519 75.76481816 -175.2890625 67.5703125 C-180.38105136 59.48303608 -186.76228997 53.8102238 -196 51 C-207.786222 48.43777783 -220.42503709 51.17052906 -229 60 Z M105.125 61.8125 C99.11328591 69.21371404 96.38722005 77.50191075 97 87 C98.5204822 96.08104505 102.0675927 103.80258337 109.17578125 109.8515625 C111.39028856 111.40439492 113.61099895 112.7344977 116 114 C116.92039062 114.50853516 116.92039062 114.50853516 117.859375 115.02734375 C125.51051784 118.57498904 135.38980111 118.26521823 143.25 115.5625 C152.75483387 111.09976911 159.36771512 103.78182767 163 94 C165.74024681 85.20613605 164.52517097 76.00926343 160.6796875 67.796875 C155.32101013 58.87405408 147.75709297 53.50648514 137.875 50.75 C125.27910568 48.31208497 113.88132249 52.43874452 105.125 61.8125 Z M-104 143 C-104.60714844 143.47695313 -105.21429688 143.95390625 -105.83984375 144.4453125 C-123.21818118 158.23764379 -135.49336572 182.31848469 -138.70263672 204.20458984 C-139.31707867 209.98074772 -139.44002002 215.75764491 -139.5 221.5625 C-139.51861084 222.75198242 -139.53722168 223.94146484 -139.55639648 225.16699219 C-139.49983831 232.95335033 -138.78552236 240.01034615 -133.22070312 245.87524414 C-126.49478645 251.98181917 -120.17907873 253.12092143 -111.18215942 253.13371277 C-110.52114192 253.13597833 -109.86012441 253.13824388 -109.17907608 253.14057809 C-106.97760165 253.14687736 -104.77618944 253.14609136 -102.57470703 253.14526367 C-100.99076254 253.14825769 -99.40681878 253.15166078 -97.82287598 253.15544128 C-93.52943871 253.16426033 -89.23602138 253.1666185 -84.94257593 253.16725707 C-82.25796839 253.16796871 -79.5733659 253.17010518 -76.88875961 253.17275429 C-67.51681955 253.18200044 -58.14489369 253.18609005 -48.77294922 253.18530273 C-40.04676943 253.18470198 -31.32065146 253.19525515 -22.59448731 253.2110464 C-15.09366348 253.22413493 -7.59285984 253.22948609 -0.09202468 253.22884732 C4.38394288 253.22859274 8.85985546 253.23142196 13.33581161 253.24202538 C17.54653056 253.25172857 21.7571422 253.25177033 25.96786499 253.24450874 C27.50934125 253.2434657 29.05082427 253.24580912 30.59228897 253.2518692 C45.21245004 253.45422029 45.21245004 253.45422029 58 247 C67.03379036 237.55558281 65.48616409 226.42675508 65.30859375 214.15625 C64.54025875 189.85008394 53.90469862 167.32976841 37 150 C36.175 149.13375 35.35 148.2675 34.5 147.375 C33.675 146.59125 32.85 145.8075 32 145 C31.10474609 144.11248047 31.10474609 144.11248047 30.19140625 143.20703125 C12.03722499 125.98554187 -14.91540165 117.21730676 -39.65234375 117.75 C-63.52275861 119.53262141 -85.87023139 126.9687435 -104 143 Z M-259.76953125 157.75390625 C-267.69366555 166.70050949 -276.40634057 179.68391446 -276.29296875 191.99609375 C-275.83259178 195.14507222 -274.23099654 196.834621 -272 199 C-269.58813315 200.20593342 -268.08766923 200.12318918 -265.39364624 200.12025452 C-264.4232692 200.12162918 -263.45289215 200.12300385 -262.45310974 200.12442017 C-261.38496536 200.12082489 -260.31682098 200.11722961 -259.21630859 200.11352539 C-258.09435593 200.11367142 -256.97240326 200.11381744 -255.81645203 200.1139679 C-252.09376111 200.11326909 -248.37111972 200.10547815 -244.6484375 200.09765625 C-242.07296781 200.09579196 -239.49749776 200.09436811 -236.92202759 200.09336853 C-230.82699678 200.0899355 -224.73198653 200.08204739 -218.63696349 200.07201904 C-211.69872028 200.06085056 -204.76047624 200.0553456 -197.82222629 200.05032361 C-183.54814124 200.03986458 -169.27407126 200.02226971 -155 200 C-153.8891887 196.68426724 -152.78926697 193.38075072 -151.8515625 190.01171875 C-147.84067138 175.85668317 -147.84067138 175.85668317 -144.6015625 169.76171875 C-143.78615008 167.37372522 -144.04286125 166.33330138 -145 164 C-156.36826346 148.77325988 -173.29335322 138.25332987 -192 135 C-192.72574219 134.87109375 -193.45148438 134.7421875 -194.19921875 134.609375 C-218.60670072 130.96503585 -242.57271408 140.6541092 -259.76953125 157.75390625 Z M73 161 C72.41347656 161.63292969 71.82695312 162.26585937 71.22265625 162.91796875 C69.78375407 164.92667789 69.78375407 164.92667789 70.1328125 167.28125 C71.23809646 170.74646459 72.53415555 174.12126709 73.875 177.5 C76.32749539 183.81654624 78.11068189 189.97094389 79.45703125 196.62109375 C79.76488193 198.94222608 79.76488193 198.94222608 81 200 C82.48128987 200.1043633 83.96751106 200.1396221 85.45245361 200.14717102 C86.41423019 200.15432632 87.37600677 200.16148163 88.3669281 200.16885376 C89.43081253 200.17154266 90.49469696 200.17423157 91.59082031 200.17700195 C92.70459549 200.18357315 93.81837067 200.19014435 94.96589661 200.19691467 C98.66997333 200.2167053 102.3740094 200.22832331 106.078125 200.23828125 C107.33971184 200.24235678 108.60129868 200.2464323 109.90111542 200.25063133 C115.88921538 200.26936033 121.87729054 200.28392002 127.865412 200.2922433 C134.7790185 200.30201117 141.69230444 200.32831448 148.60579801 200.36874419 C154.5917568 200.40254851 160.57756008 200.4143889 166.56362152 200.41844749 C169.1105644 200.42332825 171.65750349 200.43498422 174.20438385 200.45348549 C177.76705098 200.47775597 181.32887758 200.47693349 184.89160156 200.4699707 C185.94738907 200.48278076 187.00317657 200.49559082 188.09095764 200.50878906 C193.9075918 200.4721027 193.9075918 200.4721027 199.1317749 198.09562683 C201.93437269 194.95189478 202.40864732 192.69244081 202.33984375 188.46484375 C200.2211473 173.09820628 188.05652695 158.53298193 176.25 149.3125 C164.07016781 140.55156808 150.13019084 134.69431086 135 134 C134.35675781 133.9484375 133.71351563 133.896875 133.05078125 133.84375 C109.70644473 132.77658033 88.24377108 143.84616604 73 161 Z " fill="#000000" transform="translate(293,243)"/>
<path d="M0 0 C6.17626297 2.9843958 7.68775672 6.82380224 9.875 12.9375 C10.20306641 13.80616699 10.53113281 14.67483398 10.86914062 15.56982422 C11.56478605 17.4155286 12.25241371 19.26427175 12.93261719 21.11572266 C14.0227827 24.06156331 15.15019934 26.99063643 16.2890625 29.91796875 C19.31188326 37.71453016 19.31188326 37.71453016 20.53125 40.9140625 C20.95760742 42.0270874 20.95760742 42.0270874 21.39257812 43.16259766 C22 45 22 45 22 47 C22.74193604 46.99202393 23.48387207 46.98404785 24.24829102 46.97583008 C32.76520713 46.92568844 41.24651529 47.13690154 49.75024414 47.57983398 C51.22050838 47.65220663 52.69127916 47.71487857 54.16235352 47.76831055 C56.32738468 47.8477897 58.4890244 47.95775106 60.65234375 48.07421875 C61.92070068 48.13182373 63.18905762 48.18942871 64.49584961 48.2487793 C69.02406061 49.21953839 70.72871403 50.77411873 74 54 C75.14938555 56.29877109 75.19841264 57.75462681 75.25 60.3125 C75.27578125 61.07175781 75.3015625 61.83101562 75.328125 62.61328125 C74.6195868 67.76705312 71.6332363 70.57630799 67.62011719 73.64111328 C67.04422852 74.0689209 66.46833984 74.49672852 65.875 74.9375 C64.62598897 75.88981238 63.37867425 76.84435252 62.1328125 77.80078125 C61.13749512 78.56382568 61.13749512 78.56382568 60.12207031 79.34228516 C55.499911 82.95301476 51.01538744 86.73585957 46.51123047 90.49194336 C45.82174316 91.06436768 45.13225586 91.63679199 44.421875 92.2265625 C43.50293457 92.99347412 43.50293457 92.99347412 42.56542969 93.77587891 C41 95 41 95 39 96 C39.5189087 98.10464213 40.04036234 100.20865662 40.5625 102.3125 C40.73088379 103.00021484 40.89926758 103.68792969 41.07275391 104.39648438 C42.26615144 109.21967025 43.55244273 114.00891174 44.89453125 118.79296875 C45.2205835 119.98043701 45.54663574 121.16790527 45.88256836 122.39135742 C46.53588468 124.76692163 47.20429917 127.13839348 47.88891602 129.50512695 C49.68199917 136.1033479 50.60181139 140.57066838 48 147 C45.40628734 149.52886984 42.87114462 151.95225806 39.11499023 152.0480957 C32.95177907 151.54047402 29.0683599 149.71744411 24.0625 146.1875 C22.98983887 145.46784058 22.98983887 145.46784058 21.89550781 144.73364258 C18.75259143 142.6184803 15.64567193 140.45470941 12.54833984 138.2734375 C10.91356733 137.12228922 9.27438098 135.97738093 7.63061523 134.83911133 C6.06731126 133.75453012 4.51547488 132.65319234 2.97680664 131.53393555 C-0.95094789 128.61935925 -0.95094789 128.61935925 -5.59375 128.3984375 C-6.3878125 128.92695313 -7.181875 129.45546875 -8 130 C-9.04671875 130.65871094 -10.0934375 131.31742188 -11.171875 131.99609375 C-12.36705699 132.80625856 -13.5596282 133.62028402 -14.75 134.4375 C-16.08043716 135.33116405 -17.41117851 136.22437536 -18.7421875 137.1171875 C-20.90632584 138.57705023 -23.06420924 140.04436532 -25.21191406 141.52832031 C-27.42298348 143.05489601 -29.64788185 144.5594683 -31.875 146.0625 C-32.55143555 146.53937256 -33.22787109 147.01624512 -33.92480469 147.50756836 C-38.72774517 150.7179118 -43.15171815 152.29440041 -49 152 C-52.90578849 150.264094 -54.58486933 148.57866699 -57.0625 145.125 C-60.37203876 136.0147424 -53.32724667 120.61755154 -50.8125 111.75 C-50.08667523 109.18315918 -49.36480894 106.61528635 -48.64453125 104.046875 C-48.32846924 102.93151367 -48.01240723 101.81615234 -47.68676758 100.66699219 C-46.91687625 98.13619677 -46.91687625 98.13619677 -47 96 C-49.06852899 94.23344605 -51.14622722 92.57666037 -53.3125 90.9375 C-54.60490268 89.9423614 -55.89656092 88.94625527 -57.1875 87.94921875 C-57.83332031 87.45212402 -58.47914063 86.9550293 -59.14453125 86.44287109 C-62.64069686 83.72414231 -66.04039623 80.88847042 -69.453125 78.06640625 C-72.63833803 75.48208464 -75.9137252 73.02882694 -79.22265625 70.60546875 C-81.77723884 68.29792272 -82.78800778 66.22732337 -83.37109375 62.8515625 C-83.4973398 58.61860669 -83.37350209 55.85657778 -80.625 52.5 C-76.68755125 48.75004881 -74.41507551 48.79214514 -69.04296875 48.46484375 C-68.34416092 48.42186661 -67.64535309 48.37888947 -66.92536926 48.33460999 C-65.43841161 48.24429135 -63.95131889 48.15617407 -62.46411133 48.07006836 C-60.23411823 47.94021461 -58.00479012 47.80174136 -55.77539062 47.66210938 C-47.17389662 47.14029381 -38.62134224 46.8731188 -30 47 C-29.85159668 46.46157471 -29.70319336 45.92314941 -29.55029297 45.3684082 C-27.39487794 37.85835063 -24.71567233 30.56571097 -21.92138672 23.27563477 C-21.38793129 21.87690874 -20.86063546 20.47581884 -20.33935547 19.07250977 C-19.57532599 17.01574622 -18.79370223 14.96646398 -18.0078125 12.91796875 C-17.55035645 11.70906982 -17.09290039 10.5001709 -16.62158203 9.25463867 C-13.0525558 2.09133113 -8.06937433 -1.51648586 0 0 Z M-5 28 C-5.51385254 29.38505737 -5.51385254 29.38505737 -6.03808594 30.7980957 C-7.31515874 34.23016522 -8.60869001 37.65583402 -9.90722656 41.07983398 C-10.46641035 42.56121746 -11.02114605 44.04428805 -11.57128906 45.52905273 C-12.36393892 47.66591657 -13.17251227 49.79615486 -13.984375 51.92578125 C-14.22621521 52.58838455 -14.46805542 53.25098785 -14.71722412 53.93367004 C-16.17766986 57.70985949 -17.43013095 59.99925146 -21 62 C-24.51459206 63.17153069 -27.84617861 63.33491648 -31.51171875 63.53515625 C-32.23994339 63.57813339 -32.96816803 63.62111053 -33.71846008 63.66539001 C-36.0412692 63.80159158 -38.36435778 63.93211589 -40.6875 64.0625 C-42.26369362 64.15392279 -43.83986584 64.24571525 -45.41601562 64.33789062 C-49.27710871 64.56288191 -53.13846209 64.78278256 -57 65 C-54.09855595 67.95438091 -51.189853 70.7727296 -47.96875 73.375 C-47.24042969 73.96796875 -46.51210937 74.5609375 -45.76171875 75.171875 C-45.01535156 75.77515625 -44.26898438 76.3784375 -43.5 77 C-30.30466765 87.66565723 -30.30466765 87.66565723 -29.26757812 92.20776367 C-28.97615253 96.33797698 -29.54793775 99.20770054 -30.6875 103.17578125 C-30.86885498 103.82701462 -31.05020996 104.47824799 -31.23706055 105.1492157 C-31.8119143 107.20751667 -32.40456086 109.26006859 -33 111.3125 C-33.59310156 113.3833088 -34.18217733 115.45503832 -34.76293945 117.52934265 C-35.28740111 119.3988149 -35.8250159 121.26458228 -36.36328125 123.13012695 C-37.29982975 125.92561293 -37.29982975 125.92561293 -36 128 C-35.06800781 127.3709375 -34.13601562 126.741875 -33.17578125 126.09375 C-29.81346996 123.83090341 -26.43613196 121.59152297 -23.05273438 119.36035156 C-21.74505499 118.49374957 -20.44121431 117.62130665 -19.14257812 116.74121094 C-17.46063366 115.60210139 -15.76186018 114.48796125 -14.0625 113.375 C-13.08410156 112.72273438 -12.10570312 112.07046875 -11.09765625 111.3984375 C-7.25385325 109.66315191 -4.10038728 109.16413182 0 110 C3.15860291 111.37077547 5.94954082 113.1601349 8.8125 115.0625 C9.59351074 115.56112549 10.37452148 116.05975098 11.17919922 116.57348633 C12.73814892 117.57097584 14.29233158 118.57596061 15.84130859 119.58886719 C17.75494164 120.83980578 19.67886005 122.07062479 21.61328125 123.2890625 C24.08412411 124.84655878 26.5459618 126.41622645 29 128 C28.41975918 125.47842156 27.83579966 122.95778832 27.25 120.4375 C26.98582275 119.28797852 26.98582275 119.28797852 26.71630859 118.11523438 C25.83279327 114.32494584 24.90260839 110.57283965 23.7734375 106.84765625 C23.58104492 106.19804932 23.38865234 105.54844238 23.19042969 104.87915039 C22.65572673 103.10211729 22.09807511 101.33203632 21.5390625 99.5625 C20.83480291 94.90826273 21.03645583 91.31520857 23 87 C25.3778748 84.18926312 28.11770602 82.067239 31.0625 79.875 C31.82876709 79.27534424 32.59503418 78.67568848 33.38452148 78.05786133 C35.57403273 76.35021432 37.78348573 74.67235582 40 73 C41.85554134 71.56427489 43.71009524 70.12726973 45.5625 68.6875 C46.24441406 68.17574219 46.92632812 67.66398437 47.62890625 67.13671875 C48.08136719 66.76160156 48.53382813 66.38648438 49 66 C49 65.67 49 65.34 49 65 C48.03175293 64.95512451 47.06350586 64.91024902 46.06591797 64.86401367 C42.45334561 64.69300349 38.8418759 64.50425708 35.23046875 64.31030273 C33.6711412 64.22900695 32.11155925 64.15244077 30.55175781 64.08081055 C28.3018883 63.97664992 26.05350076 63.85517342 23.8046875 63.73046875 C23.1138205 63.70220505 22.42295349 63.67394135 21.71115112 63.64482117 C17.1632554 63.37056278 13.85741117 62.4341398 10 60 C6.11737187 53.63599298 3.81290364 46.4791122 1.25 39.5 C0.63318359 37.83710937 0.63318359 37.83710937 0.00390625 36.140625 C-1.00143309 33.42854678 -2.00262191 30.71501385 -3 28 C-3.66 28 -4.32 28 -5 28 Z " fill="#000000" transform="translate(260,63)"/>
<path d="M0 0 C4.69568458 2.53756692 6.80592934 4.62026842 8.75 9.5625 C9.23210937 10.77550781 9.71421875 11.98851563 10.2109375 13.23828125 C10.80944286 14.82471093 11.40546814 16.41207694 12 18 C12.40895508 19.07685059 12.81791016 20.15370117 13.23925781 21.26318359 C15.52701993 27.29582371 17.79277089 33.33663 20.0234375 39.390625 C20.40419434 40.42219727 20.78495117 41.45376953 21.17724609 42.51660156 C22 45 22 45 22 47 C22.81919922 46.99202393 23.63839844 46.98404785 24.48242188 46.97583008 C33.13880933 46.92915348 41.75521626 47.11145718 50.3984375 47.57983398 C51.81334015 47.65232145 53.22877779 47.71496191 54.64453125 47.76831055 C67.98074006 48.27573257 67.98074006 48.27573257 71.90625 51.45703125 C74.67093986 54.81489151 75.19071142 56.53707969 75.3125 60.8125 C75.36857422 62.09060547 75.36857422 62.09060547 75.42578125 63.39453125 C74.46165525 69.29427478 69.32170649 72.53542472 64.8125 75.9375 C63.57573501 76.89442893 62.34011353 77.85283708 61.10546875 78.8125 C60.44853027 79.32167969 59.7915918 79.83085937 59.11474609 80.35546875 C55.26029379 83.35288167 51.43156008 86.37950864 47.625 89.4375 C46.86936768 90.02845459 46.11373535 90.61940918 45.33520508 91.22827148 C44.63935303 91.79102783 43.94350098 92.35378418 43.2265625 92.93359375 C42.60346191 93.42915771 41.98036133 93.92472168 41.33837891 94.43530273 C39.5666601 96.16344831 39.5666601 96.16344831 40 100 C40.69257727 102.82969871 41.43123209 105.62014403 42.22265625 108.421875 C42.6835129 110.10401056 43.14378076 111.78630751 43.60351562 113.46875 C44.33023959 116.10799576 45.06130993 118.74577177 45.80297852 121.38085938 C46.51871663 123.9327254 47.21565078 126.48916105 47.91015625 129.046875 C48.13405533 129.82424011 48.35795441 130.60160522 48.58863831 131.40252686 C50.00059531 136.67066179 50.11805188 140.63768589 49 146 C46.96115165 148.99455852 45.42706704 150.5379021 41.94921875 151.6640625 C32.16402395 153.3878792 24.33009201 146.38456281 16.625 141.125 C9.86742614 136.53103532 3.05290849 132.12922637 -4 128 C-12.72185776 133.38669271 -21.3851243 138.8315936 -29.86157227 144.59912109 C-42.25359692 152.98129499 -42.25359692 152.98129499 -49 152 C-52.70390021 149.97333762 -54.65363011 148.51955484 -57 145 C-58.95387331 135.50154327 -54.54711545 125.07871704 -51.9375 116.0625 C-51.20790427 113.52298728 -50.48222943 110.98259614 -49.76673889 108.43907166 C-49.32355108 106.86514101 -48.87206351 105.29351818 -48.41136169 103.72462463 C-47.14131183 99.37644476 -47.14131183 99.37644476 -48 95 C-49.98559422 93.28611867 -51.97033151 91.69857508 -54.0625 90.125 C-55.33418739 89.14563923 -56.60498436 88.16512144 -57.875 87.18359375 C-58.5453125 86.66780762 -59.215625 86.15202148 -59.90625 85.62060547 C-63.48898102 82.84749814 -67.03095826 80.02536802 -70.5625 77.1875 C-71.22838135 76.6610791 -71.8942627 76.1346582 -72.58032227 75.59228516 C-82.14513911 67.88847405 -82.14513911 67.88847405 -83.62890625 62.875 C-83.45225834 57.88729424 -82.34875346 54.90687904 -79 51 C-76.11271729 49.23614087 -73.77101251 48.70495021 -70.41503906 48.49755859 C-69.51440735 48.4376474 -68.61377563 48.37773621 -67.68585205 48.31600952 C-66.24033966 48.23306137 -66.24033966 48.23306137 -64.765625 48.1484375 C-63.27588165 48.05280014 -63.27588165 48.05280014 -61.75604248 47.95523071 C-58.58781036 47.7537077 -55.41898911 47.56420771 -52.25 47.375 C-50.10021068 47.24037523 -47.95047021 47.10496791 -45.80078125 46.96875 C-40.53438707 46.6367551 -35.26745888 46.31462498 -30 46 C-29.57178955 44.81446533 -29.1435791 43.62893066 -28.70239258 42.4074707 C-27.10432813 37.99470606 -25.48790945 33.58885244 -23.8659668 29.18481445 C-23.16760853 27.28071596 -22.47418742 25.37479891 -21.78588867 23.46704102 C-20.79349239 20.71914229 -19.78330283 17.97835474 -18.76953125 15.23828125 C-18.46723099 14.38913651 -18.16493073 13.53999176 -17.85346985 12.66511536 C-14.67132535 4.17271882 -9.83227948 -1.84779045 0 0 Z M-4 27 C-4.66896648 28.58236302 -5.3348986 30.16600852 -6 31.75 C-6.45246094 32.82636719 -6.90492188 33.90273437 -7.37109375 35.01171875 C-8.62359174 38.03708001 -9.80581755 41.08515764 -10.97265625 44.14453125 C-11.31748047 45.0375293 -11.66230469 45.93052734 -12.01757812 46.85058594 C-12.70720983 48.64040581 -13.38712204 50.43400493 -14.05664062 52.23144531 C-14.37955078 53.06385742 -14.70246094 53.89626953 -15.03515625 54.75390625 C-15.3175415 55.49970947 -15.59992676 56.2455127 -15.89086914 57.01391602 C-17.82367566 60.47492878 -20.31240471 61.77080157 -24 63 C-26.50785332 63.22111552 -28.99923163 63.39790503 -31.51171875 63.53515625 C-32.23994339 63.57813339 -32.96816803 63.62111053 -33.71846008 63.66539001 C-36.0412692 63.80159158 -38.36435778 63.93211589 -40.6875 64.0625 C-42.26369362 64.15392279 -43.83986584 64.24571525 -45.41601562 64.33789062 C-49.27710871 64.56288191 -53.13846209 64.78278256 -57 65 C-54.16562367 67.88302333 -51.3370516 70.6556028 -48.1875 73.19140625 C-47.50429688 73.74376953 -46.82109375 74.29613281 -46.1171875 74.86523438 C-45.06917969 75.70538086 -45.06917969 75.70538086 -44 76.5625 C-43.30132812 77.12646484 -42.60265625 77.69042969 -41.8828125 78.27148438 C-38.96598263 80.62421036 -36.04450874 82.96539535 -33.0859375 85.265625 C-30.47106008 87.43979274 -29.73959219 88.67183517 -29 92 C-29.54326229 100.11697777 -31.69368819 107.50011164 -34.00390625 115.26757812 C-34.27332031 116.20666016 -34.54273438 117.14574219 -34.8203125 118.11328125 C-35.07055176 118.95673096 -35.32079102 119.80018066 -35.57861328 120.66918945 C-36.0272447 123.15069823 -35.80115466 124.63369596 -35 127 C-33.28939686 125.93328763 -31.57893835 124.86634273 -29.86914062 123.79833984 C-28.4069809 122.8862899 -26.94342137 121.97648046 -25.47851562 121.06884766 C-22.19518915 119.0287014 -18.95500218 116.96904019 -15.76953125 114.77734375 C-7.07151224 108.80282293 -7.07151224 108.80282293 -2.12890625 109.33203125 C8.7498753 112.74537372 18.75463018 121.51181535 28 128 C29.20544924 124.38365228 28.67379102 123.1809984 27.56640625 119.58984375 C27.0878418 117.98012695 27.0878418 117.98012695 26.59960938 116.33789062 C25.91616445 114.09706649 25.22875769 111.85744632 24.53710938 109.61914062 C20.12689114 94.72023434 20.12689114 94.72023434 22.84228516 87.87744141 C24.72296576 84.82758189 27.61083498 82.93268626 30.4375 80.8125 C31.69989065 79.84332246 32.96159999 78.87325691 34.22265625 77.90234375 C34.85445801 77.41878418 35.48625977 76.93522461 36.13720703 76.43701172 C38.91841186 74.29151085 41.64909261 72.09046439 44.375 69.875 C45.26960938 69.15054688 46.16421875 68.42609375 47.0859375 67.6796875 C48.03339844 66.84824219 48.03339844 66.84824219 49 66 C49 65.67 49 65.34 49 65 C48.06728271 64.95512451 47.13456543 64.91024902 46.17358398 64.86401367 C42.68590804 64.68992256 39.19926615 64.50402481 35.71264648 64.31030273 C34.20866009 64.22912394 32.70441757 64.15254561 31.19995117 64.08081055 C29.0269812 63.97637546 26.85549573 63.85496871 24.68359375 63.73046875 C23.37962646 63.66239014 22.07565918 63.59431152 20.73217773 63.52416992 C16.52609503 62.93344188 13.75699744 61.94782305 10 60 C8.25 57.3125 8.25 57.3125 7 54 C6.52304687 52.77023438 6.04609375 51.54046875 5.5546875 50.2734375 C5.03519554 48.84941837 4.51706614 47.42490174 4 46 C3.35801989 44.28338652 2.71473327 42.56726124 2.0703125 40.8515625 C0.34974779 36.24511038 -1.33302648 31.6260981 -3 27 C-3.33 27 -3.66 27 -4 27 Z " fill="#000000" transform="translate(437,63)"/>
<path d="M0 0 C5.12515159 4.5556903 7.18485154 12.12184557 9.484375 18.4375 C9.76726379 19.20304199 10.05015259 19.96858398 10.34161377 20.75732422 C11.23205158 23.16998813 12.11612933 25.58492357 13 28 C13.60765134 29.64989491 14.21572053 31.29963599 14.82421875 32.94921875 C16.3043095 36.96438595 17.77870654 40.98160128 19.25 45 C19.80266037 45.03092239 20.35532074 45.06184479 20.92472839 45.09370422 C26.68465437 45.41863261 32.44324129 45.76235755 38.20141602 46.11694336 C40.34956808 46.24675625 42.49801404 46.37179843 44.64672852 46.49194336 C47.73804223 46.66562873 50.82788742 46.85653233 53.91796875 47.05078125 C54.87648239 47.10091873 55.83499603 47.15105621 56.82255554 47.20271301 C61.69664975 47.5265625 65.3023868 47.83514966 69.25 51 C72.01903395 54.34193753 73.00212594 57.53270812 72.7578125 61.9140625 C69.57977889 74.96844673 46.56267671 87.177199 36.25 95 C36.78580475 97.37645165 37.32751047 99.75122676 37.875 102.125 C38.04741211 102.87402588 38.21982422 103.62305176 38.39746094 104.39477539 C39.44539749 108.85486239 40.58928573 113.2712888 41.8515625 117.67578125 C42.12403809 118.63274902 42.39651367 119.5897168 42.67724609 120.57568359 C43.21321159 122.43995291 43.75989573 124.30118451 44.31884766 126.15869141 C46.02023339 132.09658232 47.03497982 137.81255415 46.25 144 C44.20686327 147.50252011 42.15212767 149.77361702 38.25 151 C32.64844356 151.46849381 29.23373625 150.37856227 24.625 147.375 C23.69349121 146.79395508 23.69349121 146.79395508 22.74316406 146.20117188 C15.80449251 141.82628066 9.00393059 137.22109739 2.22021484 132.61083984 C1.3586377 132.0277002 0.49706055 131.44456055 -0.390625 130.84375 C-1.15922852 130.31974609 -1.92783203 129.79574219 -2.71972656 129.25585938 C-4.82076054 127.84856431 -4.82076054 127.84856431 -7.75 127 C-10.59324521 128.48185288 -10.59324521 128.48185288 -13.66796875 130.6640625 C-14.24404373 131.05314789 -14.82011871 131.44223328 -15.41365051 131.84310913 C-17.26167288 133.09414102 -19.09967627 134.35904523 -20.9375 135.625 C-22.15623574 136.45540435 -23.37563024 137.28484276 -24.59570312 138.11328125 C-25.18927109 138.51641541 -25.78283905 138.91954956 -26.39439392 139.3348999 C-26.97967361 139.73227356 -27.56495331 140.12964722 -28.16796875 140.5390625 C-28.74764908 140.93305237 -29.32732941 141.32704224 -29.92457581 141.73297119 C-44.32564447 151.5110455 -44.32564447 151.5110455 -51.75 151 C-54.625 149.75 -54.625 149.75 -56.75 148 C-57.3275 147.608125 -57.905 147.21625 -58.5 146.8125 C-60.93281379 143.28492001 -61.02312232 138.83376218 -60.40750122 134.70043945 C-59.82212317 132.19258889 -59.1524496 129.72514003 -58.44140625 127.25 C-58.19583481 126.35128174 -57.95026337 125.45256348 -57.69725037 124.52661133 C-56.91613266 121.68038202 -56.11470485 118.84034945 -55.3125 116 C-54.77663889 114.06157223 -54.24211962 112.122773 -53.70898438 110.18359375 C-52.40480654 105.45129058 -51.08239405 100.72443271 -49.75 96 C-55.2553305 90.97113888 -60.76592987 86.03366075 -66.6875 81.5 C-67.87822169 80.57501314 -69.06831686 79.64921925 -70.2578125 78.72265625 C-70.83950195 78.27035645 -71.42119141 77.81805664 -72.02050781 77.35205078 C-74.72263753 75.23962922 -77.39605325 73.09489783 -80.0625 70.9375 C-80.94550781 70.22464844 -81.82851562 69.51179688 -82.73828125 68.77734375 C-85.00956997 66.77067119 -85.64745999 65.81446068 -86.0234375 62.828125 C-86.33137554 55.01123631 -86.33137554 55.01123631 -83.375 51.4375 C-79.48787341 47.82802531 -77.28478468 47.79637854 -72.046875 47.46484375 C-71.37263489 47.42186661 -70.69839478 47.37888947 -70.00372314 47.33460999 C-68.56804518 47.24428362 -67.13222677 47.1561669 -65.69628906 47.07006836 C-63.54967165 46.94049819 -61.40378669 46.80188072 -59.2578125 46.66210938 C-50.40688366 46.10556555 -41.62153268 45.88179462 -32.75 46 C-32.596521 45.44924805 -32.44304199 44.89849609 -32.28491211 44.33105469 C-30.21419326 37.15372641 -27.68956431 30.16672899 -25.04370117 23.18505859 C-24.30953725 21.24215934 -23.58727474 19.29508831 -22.86523438 17.34765625 C-22.3913446 16.09087426 -21.91675943 14.83435422 -21.44140625 13.578125 C-21.02060791 12.45825195 -20.59980957 11.33837891 -20.16625977 10.18457031 C-18.40254468 6.21871968 -16.46161175 2.3448378 -13 -0.375 C-8.44395638 -1.64056767 -4.38884098 -1.59594218 0 0 Z M-7.75 26 C-8.07274902 26.85754883 -8.39549805 27.71509766 -8.72802734 28.59863281 C-9.93025523 31.78987563 -11.13440182 34.98038072 -12.33984375 38.17041016 C-12.86046809 39.54935237 -13.38033337 40.92858143 -13.89941406 42.30810547 C-14.64707675 44.29471112 -15.39749282 46.280258 -16.1484375 48.265625 C-16.59880371 49.45961914 -17.04916992 50.65361328 -17.51318359 51.88378906 C-17.92133301 52.91213867 -18.32948242 53.94048828 -18.75 55 C-19.10892334 56.10553223 -19.10892334 56.10553223 -19.47509766 57.23339844 C-21.54131223 60.09650235 -24.47501218 61.04289782 -27.75 62 C-31.48217773 62.52416992 -31.48217773 62.52416992 -35.43359375 62.73046875 C-36.13396255 62.770616 -36.83433136 62.81076324 -37.55592346 62.85212708 C-39.76598989 62.97605358 -41.9764818 63.08207556 -44.1875 63.1875 C-45.69733022 63.26899422 -47.20709739 63.3516656 -48.71679688 63.43554688 C-52.39390171 63.63730072 -56.07160973 63.82302294 -59.75 64 C-55.81651033 67.97655506 -55.81651033 67.97655506 -51.6640625 71.71875 C-51.12885986 72.1737085 -50.59365723 72.62866699 -50.04223633 73.09741211 C-49.21695435 73.79169312 -49.21695435 73.79169312 -48.375 74.5 C-47.80354248 74.98412354 -47.23208496 75.46824707 -46.64331055 75.96704102 C-43.70205564 78.43836408 -40.74889336 80.78416891 -37.5625 82.9375 C-34.72524993 85.01815005 -33.99198504 85.84539385 -32.75 89 C-31.54335864 96.99250562 -33.97664314 104.37822226 -36.3125 111.9375 C-36.98810892 114.15263207 -37.65645193 116.3699974 -38.31640625 118.58984375 C-38.61490479 119.55784912 -38.91340332 120.52585449 -39.22094727 121.52319336 C-39.9935789 124.11496726 -39.9935789 124.11496726 -38.75 127 C-38.15050537 126.5968457 -37.55101074 126.19369141 -36.93334961 125.77832031 C-34.18639357 123.93306114 -31.43697255 122.0915072 -28.6875 120.25 C-27.74455078 119.61578125 -26.80160156 118.9815625 -25.83007812 118.328125 C-23.14818492 116.53396648 -20.4515721 114.7643348 -17.75 113 C-17.1017627 112.55591797 -16.45352539 112.11183594 -15.78564453 111.65429688 C-11.56833844 108.93778162 -7.65605974 107.97518916 -2.75 109 C0.07998905 110.21608269 2.53056649 111.8192938 5.0625 113.5625 C5.74957031 114.01415527 6.43664062 114.46581055 7.14453125 114.93115234 C8.5301947 115.84275602 9.91132166 116.76129641 11.28759766 117.68701172 C14.076031 119.55267414 16.91139863 121.33664442 19.75 123.125 C21.25044477 124.08263681 22.75064088 125.04066429 24.25 126 C25.58357524 122.3095616 24.89046815 119.90481813 23.78125 116.203125 C23.45769531 115.0790625 23.13414063 113.955 22.80078125 112.796875 C22.10451477 110.4466521 21.4040439 108.09767038 20.69921875 105.75 C17.45904446 94.44166265 17.45904446 94.44166265 19.25 88 C21.96621122 83.59986686 25.87216996 80.71587711 29.9375 77.625 C30.55383301 77.14820801 31.17016602 76.67141602 31.80517578 76.18017578 C33.6156506 74.78085029 35.4317169 73.38915806 37.25 72 C39.04314855 70.6269331 40.83509274 69.25228953 42.625 67.875 C43.33398438 67.33617187 44.04296875 66.79734375 44.7734375 66.2421875 C45.26070313 65.83226562 45.74796875 65.42234375 46.25 65 C46.25 64.67 46.25 64.34 46.25 64 C45.28175293 63.95512451 44.31350586 63.91024902 43.31591797 63.86401367 C39.70334561 63.69300349 36.0918759 63.50425708 32.48046875 63.31030273 C30.9211412 63.22900695 29.36155925 63.15244077 27.80175781 63.08081055 C25.5518883 62.97664992 23.30350076 62.85517342 21.0546875 62.73046875 C20.3638205 62.70220505 19.67295349 62.67394135 18.96115112 62.64482117 C14.4131693 62.37055759 11.10750364 61.43410475 7.25 59 C2.77737633 51.68801411 0.31176872 43.26726178 -2.5703125 35.22851562 C-3.14265625 33.66327148 -3.14265625 33.66327148 -3.7265625 32.06640625 C-4.06768066 31.11709229 -4.40879883 30.16777832 -4.76025391 29.18969727 C-5.54528195 26.83951019 -5.54528195 26.83951019 -7.75 26 Z " fill="#000000" transform="translate(85.75,64)"/>
<path d="M0 0 C1.47823012 1.35670447 2.9565303 2.71333421 4.43652344 4.06811523 C5.47981449 5.0235965 6.52213146 5.98014243 7.56347656 6.93774414 C12.71294122 11.67116475 17.90114498 16.33210094 23.375 20.6875 C27.22739726 24.08127854 27.22739726 24.08127854 28 27 C27.92598764 31.14469235 27.59591132 33.27768325 24.9375 36.5 C21.74626863 38.12956495 19.57952703 38.45715951 16.0390625 37.80078125 C12.86511593 36.55430798 11.01516908 34.44689556 8.76171875 31.9453125 C7.04290958 30.0473813 5.25858588 28.41119496 3.3125 26.75 C-0.72058318 23.27293411 -4.63928752 19.67772014 -8.55273438 16.06762695 C-12.16177824 12.74608514 -15.83127515 9.5093343 -19.57421875 6.33984375 C-21.70528772 4.33722277 -21.98722874 3.11494134 -22.3125 0.1875 C-21.92442854 -3.77082892 -20.82562595 -5.25286366 -18 -8 C-10.91625787 -11.54187107 -4.71914752 -4.42716014 0 0 Z " fill="#000000" transform="translate(190,50)"/>
<path d="M0 0 C2.34507162 2.18873351 2.91489942 3.62555745 3.625 6.75 C2.26731756 13.8099487 -4.43125309 18.54847646 -9.703125 23.0234375 C-12.50453186 25.43417197 -15.22000374 27.9334085 -17.9375 30.4375 C-18.4523999 30.90696045 -18.9672998 31.3764209 -19.49780273 31.86010742 C-21.86787528 34.02197009 -24.20142181 36.19825977 -26.48828125 38.44921875 C-32.64716653 44.37408766 -32.64716653 44.37408766 -37.25 45.25 C-41 45 -41 45 -43.9375 43.5 C-46.6225688 40.24537115 -47 38.19763489 -47 34 C-45.34728868 29.59276981 -41.94217919 27.03949987 -38.43359375 24.078125 C-35.60176531 21.65993443 -32.86119826 19.14984993 -30.125 16.625 C-26.2604455 13.07173815 -22.3913165 9.52399459 -18.5 6 C-17.7265625 5.29875 -16.953125 4.5975 -16.15625 3.875 C-10.47395045 -1.06613004 -7.35118297 -3.28457111 0 0 Z " fill="#000000" transform="translate(341,43)"/>
<path d="M0 0 C0.66 -0.0103125 1.32 -0.020625 2 -0.03125 C5.03427264 0.77472867 6.09206316 2.00127326 8 4.5 C8.40979806 7.47980392 8.5849234 10.08321317 8.56640625 13.0625 C8.57570412 14.30495483 8.57570412 14.30495483 8.58518982 15.57250977 C8.59228217 17.32078884 8.58912411 19.06913554 8.57641602 20.81738281 C8.5625441 23.49149824 8.59663146 26.16211732 8.63476562 28.8359375 C8.63571681 30.53645919 8.63385802 32.23698525 8.62890625 33.9375 C8.64216446 34.73551025 8.65542267 35.53352051 8.66908264 36.35571289 C8.60327856 40.28079784 8.37991862 42.0955107 5.64819336 45.00390625 C2.38631235 46.84670212 0.69275381 47.11545897 -3 46.5 C-5.64819336 45.00390625 -5.64819336 45.00390625 -8 42.5 C-8.49542141 39.45502697 -8.67943124 36.97859398 -8.62890625 33.9375 C-8.63131821 33.10919678 -8.63373016 32.28089355 -8.63621521 31.42749023 C-8.63523728 29.67915044 -8.62185621 27.93077948 -8.59692383 26.18261719 C-8.56261156 23.50869412 -8.5762656 20.83807608 -8.59570312 18.1640625 C-8.58880446 16.46352762 -8.57913189 14.76300126 -8.56640625 13.0625 C-8.57136612 12.26448975 -8.57632599 11.46647949 -8.58143616 10.64428711 C-8.50463858 7.01895286 -8.32161919 4.92120811 -6.08959961 1.99804688 C-3.82429366 0.37403504 -2.7559893 -0.04306233 0 0 Z " fill="#000000" transform="translate(256,-0.5)"/>
</svg>
