<?xml version="1.0" encoding="UTF-8"?>
<svg version="1.1" xmlns="http://www.w3.org/2000/svg" width="512" height="512">
<path d="M0 0 C0.62100082 0.25150314 1.24200165 0.50300629 1.88182068 0.76213074 C3.24625283 1.31564162 4.60925317 1.87269202 5.97097778 2.43283081 C9.03398051 3.69222887 12.10436367 4.93319077 15.17427063 6.17564392 C16.87471697 6.86397669 18.5748102 7.5531823 20.27458191 8.24317932 C30.24545163 12.28749271 40.25143826 16.24266177 50.25735474 20.19927979 C54.78498257 21.98980796 59.31175504 23.7824935 63.83854675 25.57513428 C66.17543525 26.50055819 68.51235981 27.42589104 70.84931946 28.35113525 C83.97187553 33.54671268 97.09147889 38.74973216 110.2109375 43.953125 C115.05337995 45.87371171 119.89582581 47.79428979 124.73828125 49.71484375 C125.94452652 50.19325714 127.15077179 50.67167053 128.39356995 51.1645813 C136.62360193 54.42855568 144.8541986 57.69110243 153.08507538 60.95294571 C166.8966917 66.4264152 180.7070153 71.90313322 194.51556396 77.38433838 C197.32483332 78.49930153 200.13431422 79.61372985 202.94384766 80.72802734 C206.68557311 82.21236201 210.42629169 83.69919672 214.16589355 85.18887329 C216.01780923 85.92600732 217.87070296 86.66068269 219.72363281 87.39526367 C220.77260742 87.81396729 221.82158203 88.2326709 222.90234375 88.6640625 C224.22600952 89.1907251 224.22600952 89.1907251 225.57641602 89.72802734 C227.5234375 90.578125 227.5234375 90.578125 228.5234375 91.578125 C228.62113821 93.50680539 228.64715056 95.43912507 228.64648533 97.37027836 C228.64847638 98.636742 228.65046743 99.90320564 228.65251881 101.20804697 C228.64966521 102.63178593 228.6467196 104.05552471 228.64369202 105.47926331 C228.64412759 106.97742908 228.64500223 108.47559478 228.64628118 109.97376007 C228.64852894 114.11028165 228.64450105 118.24677759 228.63950312 122.38329589 C228.63520281 126.836626 228.63664475 131.28995454 228.6374054 135.74328613 C228.6379309 143.46551929 228.63478136 151.18774402 228.62916756 158.90997505 C228.6210561 170.07515916 228.6184377 181.24033918 228.61717957 192.40552592 C228.61498849 210.51831842 228.60832689 228.63110642 228.59887695 246.74389648 C228.58970428 264.34350563 228.58262274 281.94311356 228.57836914 299.54272461 C228.57797506 301.16874962 228.57797506 301.16874962 228.57757301 302.82762361 C228.57626801 308.26557084 228.5750043 313.70351807 228.57376111 319.14146531 C228.56338675 364.28702181 228.54549258 409.43257282 228.5234375 454.578125 C216.3134375 454.578125 204.1034375 454.578125 191.5234375 454.578125 C191.5234375 346.998125 191.5234375 239.418125 191.5234375 128.578125 C57.5434375 128.578125 -76.4365625 128.578125 -214.4765625 128.578125 C-214.4765625 236.158125 -214.4765625 343.738125 -214.4765625 454.578125 C-226.6865625 454.578125 -238.8965625 454.578125 -251.4765625 454.578125 C-251.4765625 334.788125 -251.4765625 214.998125 -251.4765625 91.578125 C-242.47762792 87.07865771 -242.47762792 87.07865771 -239.28076172 85.84570312 C-238.55607697 85.56389694 -237.83139221 85.28209076 -237.08474731 84.991745 C-236.3245932 84.7005629 -235.56443909 84.4093808 -234.78125 84.109375 C-233.96510223 83.79293533 -233.14895447 83.47649567 -232.30807495 83.15046692 C-230.56372032 82.47446585 -228.81871772 81.80013477 -227.07312012 81.12734985 C-222.41525997 79.33163456 -217.76261936 77.52247856 -213.109375 75.71484375 C-212.18229736 75.35504929 -211.25521973 74.99525482 -210.30004883 74.6245575 C-202.92341065 71.75921001 -195.56876889 68.84322482 -188.2265625 65.890625 C-174.74298016 60.47403863 -161.23688374 55.1151533 -147.7265625 49.765625 C-145.44604426 48.86255049 -143.16552669 47.9594743 -140.88500977 47.05639648 C-137.36497002 45.66249267 -133.84492313 44.26860692 -130.32484436 42.87480164 C-120.60591295 39.0262073 -110.88836133 35.17414085 -101.17204285 31.31895447 C-95.08135129 28.90243477 -88.98982422 26.48807518 -82.89624023 24.07885742 C-72.19940058 19.847439 -61.5089152 15.60352227 -50.85179138 11.27285767 C-46.3877478 9.45989285 -41.91913921 7.65834537 -37.45010376 5.85772705 C-35.36351138 5.01306617 -33.27927759 4.16255227 -31.19760132 3.30584717 C-28.34446388 2.13192866 -25.48398043 0.97801905 -22.62109375 -0.171875 C-21.7915921 -0.51954926 -20.96209045 -0.86722351 -20.10745239 -1.22543335 C-12.62087016 -4.19034038 -7.39629351 -3.03096377 0 0 Z M-66.4765625 69.578125 C-69.45831401 74.05075227 -68.80583712 78.317603 -68.7890625 83.578125 C-68.80517578 84.58875 -68.82128906 85.599375 -68.83789062 86.640625 C-68.83853516 87.61 -68.83917969 88.579375 -68.83984375 89.578125 C-68.84282471 90.465 -68.84580566 91.351875 -68.84887695 92.265625 C-68.3910918 95.10899611 -67.7159722 95.81741279 -65.4765625 97.578125 C-63.38385462 98.02747959 -63.38385462 98.02747959 -61.03588867 97.95907593 C-60.12737152 97.9675354 -59.21885437 97.97599487 -58.2828064 97.98471069 C-56.7912352 97.97560165 -56.7912352 97.97560165 -55.26953125 97.96630859 C-53.69602402 97.97419403 -53.69602402 97.97419403 -52.09072876 97.98223877 C-48.61502293 97.99546813 -45.13977318 97.98669004 -41.6640625 97.9765625 C-39.25414949 97.97858238 -36.84423708 97.9814931 -34.43432617 97.98526001 C-29.38031197 97.98968736 -24.32645669 97.98323895 -19.27246094 97.96923828 C-12.78547009 97.95214637 -6.29885157 97.96198533 0.18812561 97.97995567 C5.16543395 97.99078231 10.14265363 97.98735228 15.1199646 97.9795723 C17.51223799 97.9775672 19.90451937 97.98004036 22.29678345 97.98701096 C25.63687548 97.99460684 28.97635964 97.98304682 32.31640625 97.96630859 C33.31078705 97.97238129 34.30516785 97.97845398 35.3296814 97.98471069 C36.69245712 97.97202148 36.69245712 97.97202148 38.08276367 97.95907593 C38.87253098 97.95794485 39.66229828 97.95681377 40.47599792 97.95564842 C43.05386305 97.48032086 43.94291121 96.63442813 45.5234375 94.578125 C45.96826258 92.21377839 45.96826258 92.21377839 45.88671875 89.578125 C45.88607422 88.60875 45.88542969 87.639375 45.88476562 86.640625 C45.86865234 85.63 45.85253906 84.619375 45.8359375 83.578125 C45.84077148 82.0621875 45.84077148 82.0621875 45.84570312 80.515625 C45.95352552 74.70906325 45.95352552 74.70906325 43.5234375 69.578125 C41.49735245 69.12394493 41.49735245 69.12394493 39.12036133 69.19717407 C38.19494537 69.1887146 37.26952942 69.18025513 36.31607056 69.17153931 C35.29782196 69.177612 34.27957336 69.18368469 33.23046875 69.18994141 C32.16049652 69.18468445 31.09052429 69.17942749 29.98812866 69.17401123 C26.43725151 69.16076442 22.88681953 69.16956609 19.3359375 69.1796875 C16.87735915 69.17766812 14.41878137 69.17475782 11.96020508 69.17098999 C6.80186269 69.16656028 1.6436759 69.17301862 -3.51464844 69.18701172 C-10.13964726 69.20410376 -16.76428153 69.19426606 -23.38926697 69.17629433 C-28.46776089 69.16547405 -33.54616782 69.16889478 -38.62466431 69.1766777 C-41.06800377 69.17868457 -43.51135103 69.1762035 -45.9546814 69.16923904 C-49.36453287 69.16165356 -52.77378698 69.17318844 -56.18359375 69.18994141 C-57.20184235 69.18386871 -58.22009094 69.17779602 -59.26919556 69.17153931 C-60.19461151 69.17999878 -61.12002747 69.18845825 -62.07348633 69.19717407 C-63.28359123 69.19887069 -63.28359123 69.19887069 -64.5181427 69.20060158 C-65.16442123 69.32518431 -65.81069977 69.44976704 -66.4765625 69.578125 Z " fill="#000000" transform="translate(267.4765625,30.421875)"/>
<path d="M0 0 C13.2 0 26.4 0 40 0 C40 15.51 40 31.02 40 47 C52.21 47 64.42 47 77 47 C77 31.49 77 15.98 77 0 C90.2 0 103.4 0 117 0 C117.09032436 14.3862388 117.16372976 28.77228964 117.20724869 43.15874767 C117.2281343 49.83878084 117.25647025 56.51857056 117.30175781 63.19848633 C117.34517986 69.64348165 117.3691298 76.08828073 117.37950897 82.53341103 C117.3869068 84.99383954 117.40135277 87.45425717 117.42292023 89.91460228 C117.45190476 93.35761198 117.45595793 96.79980809 117.45410156 100.24291992 C117.46848267 101.26287552 117.48286377 102.28283112 117.49768066 103.33369446 C117.4718632 107.75117643 117.44207131 110.27772692 115.09661865 114.1098175 C112.1805213 116.73879162 110.6317544 117.12583161 106.80693054 117.14717102 C105.92792084 117.15432632 105.04891113 117.16148163 104.14326477 117.16885376 C102.69309212 117.17288712 102.69309212 117.17288712 101.21362305 117.17700195 C100.19723755 117.18357315 99.18085205 117.19014435 98.13366699 117.19691467 C94.75968356 117.21667595 91.38574467 117.22831613 88.01171875 117.23828125 C86.86137461 117.24235678 85.71103046 117.2464323 84.52582741 117.25063133 C78.4381999 117.27150341 72.35059502 117.28580063 66.26293945 117.29516602 C59.96777793 117.30623724 53.67296923 117.34064249 47.37793255 117.38033772 C42.54382153 117.40645306 37.70979525 117.41485331 32.87561989 117.41844749 C30.55475289 117.42332601 28.23388998 117.43497574 25.91309166 117.45348549 C22.66662824 117.47776986 19.42108652 117.47693125 16.17456055 117.4699707 C15.21385147 117.48278076 14.2531424 117.49559082 13.26332092 117.50878906 C8.97644365 117.47524729 6.6397142 117.3963853 2.92658997 115.09562683 C0.16986351 112.09702826 -0.12473433 110.51461491 -0.12025452 106.54550171 C-0.12162918 105.60878128 -0.12300385 104.67206085 -0.12442017 103.70695496 C-0.12082489 102.67621353 -0.11722961 101.64547211 -0.11352539 100.58349609 C-0.11367142 99.50055771 -0.11381744 98.41761932 -0.1139679 97.30186462 C-0.11326915 93.70903547 -0.10547852 90.11625764 -0.09765625 86.5234375 C-0.09579193 84.03764881 -0.0943681 81.55185975 -0.09336853 79.06607056 C-0.08993565 73.18353603 -0.08204773 67.30102057 -0.07201904 61.41849387 C-0.05975492 54.06545754 -0.05437626 46.71241893 -0.04882812 39.359375 C-0.03809268 26.23957207 -0.02049672 13.11979132 0 0 Z " fill="#000000" transform="translate(323,243)"/>
<path d="M0 0 C13.2 0 26.4 0 40 0 C40 15.51 40 31.02 40 47 C52.21 47 64.42 47 77 47 C77 31.49 77 15.98 77 0 C90.2 0 103.4 0 117 0 C117.09032436 14.3862388 117.16372976 28.77228964 117.20724869 43.15874767 C117.2281343 49.83878084 117.25647025 56.51857056 117.30175781 63.19848633 C117.34517986 69.64348165 117.3691298 76.08828073 117.37950897 82.53341103 C117.3869068 84.99383954 117.40135277 87.45425717 117.42292023 89.91460228 C117.45190476 93.35761198 117.45595793 96.79980809 117.45410156 100.24291992 C117.46848267 101.26287552 117.48286377 102.28283112 117.49768066 103.33369446 C117.4718632 107.75117643 117.44207131 110.27772692 115.09661865 114.1098175 C112.1805213 116.73879162 110.6317544 117.12583161 106.80693054 117.14717102 C105.92792084 117.15432632 105.04891113 117.16148163 104.14326477 117.16885376 C102.69309212 117.17288712 102.69309212 117.17288712 101.21362305 117.17700195 C100.19723755 117.18357315 99.18085205 117.19014435 98.13366699 117.19691467 C94.75968356 117.21667595 91.38574467 117.22831613 88.01171875 117.23828125 C86.86137461 117.24235678 85.71103046 117.2464323 84.52582741 117.25063133 C78.4381999 117.27150341 72.35059502 117.28580063 66.26293945 117.29516602 C59.96777793 117.30623724 53.67296923 117.34064249 47.37793255 117.38033772 C42.54382153 117.40645306 37.70979525 117.41485331 32.87561989 117.41844749 C30.55475289 117.42332601 28.23388998 117.43497574 25.91309166 117.45348549 C22.66662824 117.47776986 19.42108652 117.47693125 16.17456055 117.4699707 C15.21385147 117.48278076 14.2531424 117.49559082 13.26332092 117.50878906 C8.97644365 117.47524729 6.6397142 117.3963853 2.92658997 115.09562683 C0.16986351 112.09702826 -0.12473433 110.51461491 -0.12025452 106.54550171 C-0.12162918 105.60878128 -0.12300385 104.67206085 -0.12442017 103.70695496 C-0.12082489 102.67621353 -0.11722961 101.64547211 -0.11352539 100.58349609 C-0.11367142 99.50055771 -0.11381744 98.41761932 -0.1139679 97.30186462 C-0.11326915 93.70903547 -0.10547852 90.11625764 -0.09765625 86.5234375 C-0.09579193 84.03764881 -0.0943681 81.55185975 -0.09336853 79.06607056 C-0.08993565 73.18353603 -0.08204773 67.30102057 -0.07201904 61.41849387 C-0.05975492 54.06545754 -0.05437626 46.71241893 -0.04882812 39.359375 C-0.03809268 26.23957207 -0.02049672 13.11979132 0 0 Z " fill="#000000" transform="translate(72,243)"/>
<path d="M0 0 C13.2 0 26.4 0 40 0 C40 15.51 40 31.02 40 47 C52.21 47 64.42 47 77 47 C77 31.49 77 15.98 77 0 C90.2 0 103.4 0 117 0 C117.06774443 14.2558595 117.12279818 28.51161229 117.15543652 42.76759624 C117.17110031 49.38703575 117.19235193 56.00635953 117.22631836 62.62573242 C117.25888586 69.01236422 117.27684764 75.39888462 117.28463173 81.78559303 C117.29017989 84.22367926 117.3010139 86.66175932 117.31719017 89.0997982 C117.33892927 92.51157235 117.34196833 95.92288466 117.34057617 99.3347168 C117.351362 100.34532166 117.36214783 101.35592651 117.3732605 102.39715576 C117.33495762 111.05739413 117.33495762 111.05739413 114 115 C111.67245087 116.16377457 110.3166021 116.13058109 107.72427368 116.14044189 C106.37834892 116.14900711 106.37834892 116.14900711 105.00523376 116.15774536 C104.01817947 116.15886322 103.03112518 116.15998108 102.01416016 116.16113281 C100.45791176 116.16858017 100.45791176 116.16858017 98.870224 116.17617798 C95.42649684 116.19082355 91.98281573 116.19760539 88.5390625 116.203125 C86.15253701 116.20887421 83.76601154 116.21463197 81.37948608 116.22039795 C76.37082707 116.23091458 71.36218414 116.236753 66.35351562 116.24023438 C59.92828576 116.24572229 53.50326747 116.26975407 47.07810402 116.29820633 C42.14709853 116.31680791 37.21614427 116.32203698 32.28510666 116.32357025 C29.91597715 116.32660261 27.54684866 116.33465065 25.17775345 116.34775543 C21.86654702 116.36476481 18.55586101 116.36294807 15.24462891 116.35644531 C14.26162308 116.3656601 13.27861725 116.37487488 12.26582336 116.3843689 C11.36290054 116.37879974 10.45997772 116.37323059 9.5296936 116.36749268 C8.74692362 116.36895924 7.96415363 116.3704258 7.15766335 116.3719368 C4.39737551 115.89611993 3.03273322 114.90151738 1 113 C0.05087658 110.15262973 -0.12361832 108.41326346 -0.12025452 105.46321106 C-0.12162918 104.53353012 -0.12300385 103.60384918 -0.12442017 102.64599609 C-0.12082489 101.62820068 -0.11722961 100.61040527 -0.11352539 99.56176758 C-0.11367142 98.48843674 -0.11381744 97.4151059 -0.1139679 96.30924988 C-0.1132701 92.75432325 -0.10548386 89.19944874 -0.09765625 85.64453125 C-0.0957916 83.18259205 -0.09436792 80.72065247 -0.09336853 78.25871277 C-0.08954706 71.77319314 -0.07971991 65.28769585 -0.06866455 58.80218506 C-0.05844249 52.18648582 -0.0538692 45.57078298 -0.04882812 38.95507812 C-0.03809734 25.97004068 -0.0205035 12.98502569 0 0 Z " fill="#000000" transform="translate(323,369)"/>
<path d="M0 0 C13.2 0 26.4 0 40 0 C40 15.51 40 31.02 40 47 C52.21 47 64.42 47 77 47 C77 31.49 77 15.98 77 0 C90.2 0 103.4 0 117 0 C117.06774443 14.2558595 117.12279818 28.51161229 117.15543652 42.76759624 C117.17110031 49.38703575 117.19235193 56.00635953 117.22631836 62.62573242 C117.25888586 69.01236422 117.27684764 75.39888462 117.28463173 81.78559303 C117.29017989 84.22367926 117.3010139 86.66175932 117.31719017 89.0997982 C117.33892927 92.51157235 117.34196833 95.92288466 117.34057617 99.3347168 C117.351362 100.34532166 117.36214783 101.35592651 117.3732605 102.39715576 C117.33495762 111.05739413 117.33495762 111.05739413 114 115 C111.6742221 116.16288895 110.31470376 116.1330151 107.72427368 116.14717102 C106.37834892 116.15790398 106.37834892 116.15790398 105.00523376 116.16885376 C104.01817947 116.17154266 103.03112518 116.17423157 102.01416016 116.17700195 C100.45791176 116.18685875 100.45791176 116.18685875 98.870224 116.19691467 C95.42650283 116.21667504 91.98282529 116.22831526 88.5390625 116.23828125 C86.77857637 116.24439454 86.77857637 116.24439454 84.98252487 116.25063133 C78.7728569 116.27150193 72.56321111 116.28580042 66.35351562 116.29516602 C59.92822267 116.30624358 53.50327478 116.34065653 47.07810402 116.38033772 C42.14709818 116.40643429 37.21617549 116.41485158 32.28510666 116.41844749 C29.91596516 116.42333003 27.54682778 116.434991 25.17775345 116.45348549 C21.86643043 116.47773255 18.55601279 116.47693826 15.24462891 116.4699707 C13.77012016 116.48918579 13.77012016 116.48918579 12.26582336 116.50878906 C5.61951802 116.45767647 5.61951802 116.45767647 2.42221069 114.09562683 C0.31335736 110.98823237 -0.12448796 109.30042756 -0.12025452 105.58346558 C-0.12231651 104.19100616 -0.12231651 104.19100616 -0.12442017 102.77041626 C-0.12082489 101.74902557 -0.11722961 100.72763489 -0.11352539 99.67529297 C-0.11367142 98.60210815 -0.11381744 97.52892334 -0.1139679 96.42321777 C-0.11326917 92.86285405 -0.10547861 89.30254213 -0.09765625 85.7421875 C-0.09579193 83.27881906 -0.09436809 80.81545024 -0.09336853 78.3520813 C-0.08954446 71.85832705 -0.07971511 65.36459505 -0.06866455 58.87084961 C-0.05844806 52.24853822 -0.0538704 45.62622324 -0.04882812 39.00390625 C-0.03809276 26.0025928 -0.02049684 13.00130173 0 0 Z " fill="#000000" transform="translate(72,369)"/>
<path d="M0 0 C12.87 0 25.74 0 39 0 C39 15.51 39 31.02 39 47 C51.54 47 64.08 47 77 47 C77 31.49 77 15.98 77 0 C89.87 0 102.74 0 116 0 C116.09028989 14.53389338 116.16370977 29.06760116 116.20724869 43.60171127 C116.22787505 50.3501362 116.25599668 57.09837453 116.30175781 63.84667969 C116.34588058 70.35648146 116.36912335 76.86616199 116.37950897 83.37610626 C116.3869123 85.86248073 116.40136883 88.34884432 116.42292023 90.83513641 C116.4518643 94.31187575 116.45595964 97.78780843 116.45410156 101.26464844 C116.46848267 102.29755005 116.48286377 103.33045166 116.49768066 104.39465332 C116.47499552 108.30522333 116.44772549 111.1466152 114.61566162 114.63861084 C110.42295096 116.82081622 106.3533574 116.55570518 101.6953125 116.51757812 C100.64776794 116.5245874 99.60022339 116.53159668 98.52093506 116.53881836 C95.05535439 116.55643555 91.5905891 116.54476179 88.125 116.53125 C85.71891116 116.53394383 83.31282339 116.53782533 80.90673828 116.54284668 C75.86285035 116.5487468 70.81924566 116.54016185 65.77539062 116.52148438 C59.30524144 116.49869499 52.83575593 116.51181526 46.3656311 116.53577423 C41.39684027 116.55021804 36.42820717 116.54563263 31.45941162 116.53526306 C29.07354657 116.53259188 26.68766726 116.53587922 24.30181885 116.54518127 C20.96905503 116.5553231 17.63737077 116.53987761 14.3046875 116.51757812 C13.31547302 116.52567505 12.32625854 116.53377197 11.30706787 116.54211426 C7.50969424 116.49496597 4.77975606 116.40584433 1.38433838 114.63861084 C-0.87763328 110.32719172 -0.52082634 106.05705755 -0.45410156 101.26464844 C-0.45468567 100.17166443 -0.45526978 99.07868042 -0.45587158 97.95257568 C-0.45308362 94.33785303 -0.42195649 90.7239537 -0.390625 87.109375 C-0.38316518 84.60402883 -0.37747103 82.09867684 -0.37347412 79.59332275 C-0.35975921 73.67177281 -0.32823004 67.75048727 -0.28807616 61.82907319 C-0.23896038 54.42516391 -0.21749229 47.02121799 -0.1953125 39.6171875 C-0.15240583 26.41127874 -0.08203881 13.20572371 0 0 Z " fill="#000000" transform="translate(198,369)"/>
</svg>
