<?xml version="1.0" encoding="UTF-8"?>
<svg version="1.1" xmlns="http://www.w3.org/2000/svg" width="512" height="512">
<path d="M0 0 C1.31801605 -0.00540298 2.6360321 -0.01080597 3.99398804 -0.01637268 C7.58901344 -0.03026669 11.18355703 -0.01920196 14.77855539 -0.00266147 C18.55003592 0.01124671 22.32149011 0.00472263 26.09298706 0.00120544 C32.42274694 -0.00149148 38.75231663 0.01193643 45.08203125 0.03515625 C52.39167705 0.06178583 59.70100546 0.06350391 67.01068318 0.05176789 C74.05653944 0.04097714 81.10228132 0.04718584 88.14812851 0.06132317 C91.14082429 0.06706943 94.13343599 0.06701109 97.12613297 0.06225777 C101.30561769 0.05658543 105.48463095 0.07583484 109.6640625 0.09765625 C110.90162292 0.0931546 112.13918335 0.08865295 113.41424561 0.08401489 C120.06034398 0.14170682 125.24763515 0.27649374 130.34716797 5.03686523 C133.7752563 9.51974997 134.82783307 11.52904234 134.82289124 17.13308716 C134.82495748 18.92568057 134.82495748 18.92568057 134.82706547 20.75448799 C134.82351844 22.09096423 134.81988054 23.42744024 134.81616211 24.76391602 C134.8158559 26.18590734 134.81598904 27.60789881 134.81652737 29.02989006 C134.8167536 32.84616739 134.8109477 36.66241352 134.80391693 40.47868347 C134.79823209 44.05659079 134.79795436 47.63449043 134.79724121 51.21240234 C134.79198888 61.68384204 134.7780278 72.1552759 134.76513672 82.62670898 C134.74451172 106.01545898 134.72388672 129.40420898 134.70263672 153.50170898 C81.90263672 153.50170898 29.10263672 153.50170898 -25.29736328 153.50170898 C-25.37986328 130.21608398 -25.46236328 106.93045898 -25.54736328 82.93920898 C-25.5837793 75.58953857 -25.62019531 68.23986816 -25.65771484 60.66748047 C-25.67578125 51.6854248 -25.67578125 51.6854248 -25.67913818 47.47914124 C-25.6828615 44.54432555 -25.69783764 41.60979994 -25.71966553 38.67506409 C-25.74716648 34.92776739 -25.75531625 31.18089057 -25.74965239 27.43350232 C-25.75139332 25.41448943 -25.77281463 23.39552262 -25.79507828 21.37663174 C-25.74150563 9.69028221 -25.74150563 9.69028221 -21.29736328 4.50170898 C-15.06204937 -0.57236841 -7.66202872 -0.06005313 0 0 Z M33.29443359 38.1484375 C30.32521785 42.50864318 30.04849712 46.35035963 30.70263672 51.50170898 C33.23684259 56.13318869 35.63361357 59.8120346 40.70263672 61.50170898 C45.30219378 61.79085135 49.90752523 61.77949569 54.51513672 61.81420898 C56.42262695 61.85771484 56.42262695 61.85771484 58.36865234 61.90209961 C67.3805183 62.07938956 67.3805183 62.07938956 74.70263672 57.50170898 C77.57829433 54.22940894 78.59432282 51.62817348 79.01513672 47.25170898 C78.64991304 42.86902488 77.58406291 39.78852841 74.70263672 36.50170898 C68.59145078 31.91167694 62.07351925 31.89224043 54.70263672 32.00170898 C53.66107422 31.98624023 52.61951172 31.97077148 51.54638672 31.95483398 C44.68154003 31.98950493 38.01510697 32.62816324 33.29443359 38.1484375 Z " fill="#000000" transform="translate(201.29736328125,42.498291015625)"/>
<path d="M0 0 C36.79219213 -0.16121214 36.79219213 -0.16121214 52.21875 -0.1953125 C62.86726595 -0.21904013 73.51565522 -0.2469228 84.1640625 -0.30175781 C91.91951421 -0.34167616 99.67486308 -0.3674448 107.43041468 -0.37635398 C111.53546031 -0.3815603 115.64021178 -0.39376238 119.74516296 -0.42292023 C123.61279265 -0.45016852 127.48000835 -0.45842615 131.34772491 -0.45243073 C132.76343794 -0.45352678 134.17916551 -0.46142479 135.59479523 -0.4768219 C150.49139893 -0.63083126 150.49139893 -0.63083126 156 4 C160.96221771 9.96621056 160.5469271 15.94169926 160.45410156 23.45288086 C160.4545837 24.71257218 160.45506584 25.97226351 160.45556259 27.2701273 C160.45307779 30.66174972 160.43336835 34.05238083 160.40512085 37.44382477 C160.3822523 40.6321705 160.38126358 43.82049319 160.37841797 47.00891113 C160.35747238 56.3185156 160.30162735 65.62801512 160.25 74.9375 C160.1675 95.748125 160.085 116.55875 160 138 C107.2 138 54.4 138 0 138 C0 92.46 0 46.92 0 0 Z M54 39 C52.45240445 43.64278664 51.86844618 48.45400391 53.90625 53.0390625 C56.66943498 57.2015527 59.35418455 59.01136022 64 61 C67.47289173 61.45637491 67.47289173 61.45637491 71.15625 61.3984375 C72.1542865 61.40274277 72.1542865 61.40274277 73.17248535 61.40713501 C74.57089089 61.40916483 75.96932552 61.40371103 77.36767578 61.39111328 C79.49446781 61.3750418 81.61936003 61.39099649 83.74609375 61.41015625 C85.11198331 61.40817362 86.47787171 61.40432954 87.84375 61.3984375 C89.07287109 61.39505371 90.30199219 61.39166992 91.56835938 61.38818359 C96.82855342 60.79315595 100.01939572 58.93702187 103.8125 55.3125 C106.38685095 51.41419713 107.43629502 48.6596308 107 44 C105.64146095 39.38767607 103.73468933 36.59693508 100 33.5625 C93.49445836 30.17419706 86.88616899 30.78035812 79.6875 30.75 C78.47642578 30.729375 77.26535156 30.70875 76.01757812 30.6875 C66.52408472 30.64593024 60.44133881 31.42195434 54 39 Z " fill="#000000" transform="translate(271,225)"/>
<path d="M0 0 C1.24941879 -0.00137466 2.49883759 -0.00274933 3.78611755 -0.00416565 C5.1731112 -0.00062651 6.56010461 0.0030083 7.94709778 0.00672913 C9.4056498 0.00701116 10.86420197 0.00685295 12.32275391 0.00628662 C16.2852722 0.00599927 20.24776033 0.01188598 24.2102716 0.01886058 C28.3502727 0.02510444 32.49027446 0.02569874 36.63027954 0.02688599 C44.47128147 0.02999625 52.3122695 0.03820555 60.1532653 0.04823548 C70.74787812 0.06149407 81.34249474 0.06689898 91.93711376 0.07273769 C108.6316143 0.08214562 125.32608548 0.10206659 142.02058411 0.12025452 C142.02058411 45.66025452 142.02058411 91.20025452 142.02058411 138.12025452 C89.22058411 138.12025452 36.42058411 138.12025452 -17.97941589 138.12025452 C-18.04129089 117.45400452 -18.10316589 96.78775452 -18.16691589 75.49525452 C-18.19422791 68.9717926 -18.22153992 62.44833069 -18.24967957 55.72718811 C-18.26322937 47.75624084 -18.26322937 47.75624084 -18.26574707 44.02372742 C-18.27035163 41.41881683 -18.27977411 38.81434357 -18.29614258 36.20951843 C-18.32061719 32.2622497 -18.32113428 28.31516104 -18.31999207 24.36781311 C-18.33078639 23.20898809 -18.34158072 22.05016308 -18.35270214 20.85622215 C-18.32763683 14.38909783 -18.04074193 9.47655208 -13.47941589 4.47572327 C-8.79189764 0.82580671 -5.85522018 -0.00495785 0 0 Z M38.08308411 36.74525452 C35.52233646 40.93556885 34.73053204 44.23331659 35.02058411 49.12025452 C36.74638352 54.39917036 39.65835696 56.93946389 44.02058411 60.12025452 C49.06522771 61.80180239 54.3416056 61.38484558 59.62483215 61.41542053 C61.00481958 61.42690291 62.38476391 61.44729554 63.76448059 61.47694397 C71.87282532 61.65103461 78.19428275 61.77947607 85.02058411 57.12025452 C87.9048929 53.71459997 89.24699177 50.52927926 89.52058411 46.05775452 C88.80518172 40.42396074 86.62367748 37.60311589 82.52058411 33.80775452 C76.67344489 29.86093554 69.5690945 30.89903128 62.77058411 30.87025452 C61.56788879 30.84962952 60.36519348 30.82900452 59.12605286 30.80775452 C50.87633969 30.77153185 44.47452183 31.03375698 38.08308411 36.74525452 Z " fill="#000000" transform="translate(98.97941589355469,224.87974548339844)"/>
<path d="M0 0 C1.10669232 -0.00307895 1.10669232 -0.00307895 2.23574206 -0.0062201 C4.72753712 -0.01191007 7.21927725 -0.0104304 9.71107769 -0.00901413 C11.50780431 -0.01159662 13.30453035 -0.01460945 15.1012556 -0.01801753 C20.05398292 -0.02610438 25.00669576 -0.02787804 29.95942891 -0.028615 C35.29492307 -0.03046262 40.63040966 -0.03800844 45.96589947 -0.04475021 C57.63930509 -0.05834574 69.31270729 -0.06436007 80.98611951 -0.06876087 C88.27101321 -0.07152108 95.55590558 -0.07575801 102.84079838 -0.08026505 C122.99919362 -0.09245901 143.15758779 -0.10275826 163.31598663 -0.10614014 C165.25213229 -0.10646949 165.25213229 -0.10646949 167.227392 -0.10680549 C169.1682424 -0.10713291 169.1682424 -0.10713291 171.1483019 -0.10746694 C173.77035733 -0.10791041 176.39241276 -0.10835697 179.01446819 -0.10880661 C180.31510587 -0.10902804 181.61574354 -0.10924947 182.95579448 -0.10947761 C204.03890909 -0.11342707 225.12198917 -0.13088504 246.20509044 -0.15416613 C267.83591314 -0.17785983 289.46671849 -0.19034107 311.09755439 -0.19150805 C323.24850067 -0.1924259 335.39940196 -0.19820576 347.55033588 -0.21632767 C357.89557484 -0.23170189 368.2407549 -0.23686496 378.5860031 -0.22858956 C383.86668149 -0.22467363 389.14724118 -0.22565857 394.42790508 -0.23964691 C399.25962325 -0.25232927 404.09113281 -0.2512384 408.92285045 -0.2390562 C410.6731944 -0.23708934 412.42355284 -0.24022294 414.17387638 -0.24890056 C416.54929332 -0.25993402 418.92396637 -0.25254718 421.29936218 -0.24050903 C421.98223717 -0.24810423 422.66511216 -0.25569942 423.36868033 -0.26352477 C429.04676865 -0.20121209 433.02144281 1.36489999 437.0884428 5.31892776 C439.74865141 9.59426303 441.27813526 13.38793001 440.4634428 18.47127151 C438.9899462 23.50292753 437.01041015 26.79385388 432.8384428 30.13142776 C429.83477767 31.13264948 427.86104687 31.25254787 424.72442913 31.24495316 C423.68357662 31.24487762 422.64272411 31.24480209 421.57033062 31.24472427 C420.44837795 31.23956299 419.32642529 31.2344017 418.17047405 31.22908401 C417.02052456 31.22766907 415.87057507 31.22625412 414.68577862 31.2247963 C411.00747372 31.21919205 407.32922935 31.2066388 403.6509428 31.19392776 C401.15940722 31.18891331 398.66787069 31.18435031 396.17633343 31.18025589 C390.06368251 31.16922124 383.95106698 31.15247895 377.8384428 31.13142776 C377.85415325 32.13520462 377.8698637 33.13898148 377.88605022 34.17317581 C377.94049394 37.90974731 377.97484506 41.64628397 378.00323772 45.38313675 C378.01829156 46.99810565 378.03873928 48.6130339 378.06476116 50.22786331 C378.10129566 52.55389332 378.11820295 54.87938117 378.13141155 57.20564651 C378.14689541 57.92354858 378.16237926 58.64145065 378.17833233 59.38110733 C378.18025584 65.15628736 376.59275531 68.1578262 372.8384428 72.38142776 C368.91409119 75.81523542 364.53678038 75.46252204 359.56891155 75.41658401 C354.77586328 74.91602246 352.10944035 72.57773531 349.0259428 69.06892776 C342.32086578 58.12906526 346.8384428 41.91657157 346.8384428 31.13142776 C257.0784428 31.13142776 167.3184428 31.13142776 74.8384428 31.13142776 C74.8384428 42.02142776 74.8384428 52.91142776 74.8384428 64.13142776 C72.03274856 69.74281625 70.31136376 72.39496729 64.8384428 75.13142776 C60.00954537 75.53577988 55.43153799 75.77544497 50.9009428 73.94392776 C47.96315054 71.36223153 45.59272052 68.6399832 43.8384428 65.13142776 C43.75185712 62.57780172 43.72281764 60.05188357 43.74078655 57.49861526 C43.7422015 56.74677963 43.74361645 55.994944 43.74507427 55.22032547 C43.75067815 52.81565267 43.76323124 50.41107249 43.7759428 48.00642776 C43.78095731 46.37752286 43.7855203 44.74861649 43.78961468 43.11970901 C43.80064883 39.1235795 43.81791602 35.12751934 43.8384428 31.13142776 C42.87790745 31.14142052 42.87790745 31.14142052 41.89796734 31.15161514 C35.23079736 31.21800569 28.56372136 31.26324397 21.89630413 31.29622269 C19.4083096 31.31130537 16.92034163 31.3317743 14.43243694 31.35774612 C10.85546592 31.39415114 7.27884658 31.4111596 3.70172405 31.42439651 C2.03427891 31.4476223 2.03427891 31.4476223 0.333148 31.47131729 C-0.70755344 31.47154388 -1.74825489 31.47177048 -2.82049274 31.47200394 C-4.18949978 31.48199669 -4.18949978 31.48199669 -5.58616352 31.49219131 C-10.12348235 30.85659946 -12.73490556 28.5580794 -15.9115572 25.38142776 C-18.87585275 21.09966753 -19.68527684 18.02934312 -18.75140095 12.86189651 C-17.17419052 7.16693912 -15.06046495 4.39736627 -10.1615572 1.13142776 C-6.69471517 -0.02418624 -3.6049291 -0.00924602 0 0 Z " fill="#000000" transform="translate(45.1615571975708,391.8685722351074)"/>
</svg>
