<?xml version="1.0" encoding="UTF-8"?>
<svg version="1.1" xmlns="http://www.w3.org/2000/svg" width="512" height="512">
<path d="M0 0 C56.1 0 112.2 0 170 0 C174.95 9.24 179.9 18.48 185 28 C189.05569195 35.28860089 189.05569195 35.28860089 193.14453125 42.55859375 C195 46 195 46 197 51 C300.95 51 404.9 51 512 51 C512 186.63 512 322.26 512 462 C343.04 462 174.08 462 0 462 C0 309.54 0 157.08 0 0 Z M52 52 C52 170.14 52 288.28 52 410 C186.64 410 321.28 410 460 410 C460 308.69 460 207.38 460 103 C362.65 103 265.3 103 165 103 C164.01 100.03 164.01 100.03 163 97 C161.92085363 94.85324348 160.79036537 92.73184188 159.62109375 90.6328125 C159.29013199 90.03556366 158.95917023 89.43831482 158.61817932 88.82296753 C157.56266749 86.92097814 156.50020323 85.02297875 155.4375 83.125 C154.75149808 81.89087783 154.06594803 80.65650438 153.38085938 79.421875 C148.28744069 70.26236242 143.13816985 61.13452418 138 52 C109.62 52 81.24 52 52 52 Z " fill="#000000" transform="translate(0,25)"/>
<path d="M0 0 C17.16 0 34.32 0 52 0 C52 25.41 52 50.82 52 77 C77.41 77 102.82 77 129 77 C129 94.16 129 111.32 129 129 C103.59 129 78.18 129 52 129 C52 154.08 52 179.16 52 205 C34.84 205 17.68 205 0 205 C0 179.92 0 154.84 0 129 C-25.41 129 -50.82 129 -77 129 C-77 111.84 -77 94.68 -77 77 C-51.59 77 -26.18 77 0 77 C0 51.59 0 26.18 0 0 Z " fill="#000000" transform="translate(230,179)"/>
</svg>
