<?xml version="1.0" encoding="UTF-8"?>
<svg version="1.1" xmlns="http://www.w3.org/2000/svg" width="512" height="512">
<path d="M0 0 C4.03383708 1.70866749 7.7381195 3.88935642 11.5 6.125 C12.59513916 6.75736572 13.69027832 7.38973145 14.81860352 8.04125977 C18.22208668 10.01138905 21.61139868 12.00440795 25 14 C27.01867116 15.17465641 29.0381703 16.34789137 31.05859375 17.51953125 C35.0142823 19.81679524 38.96425539 22.12346649 42.91015625 24.4375 C49.21570556 28.1321339 55.54303734 31.78836352 61.875 35.4375 C63.48870483 36.36804199 63.48870483 36.36804199 65.13500977 37.31738281 C70.66035576 40.5025289 76.18831736 43.68306961 81.71875 46.859375 C92.0082156 52.77285235 102.28780343 58.70382006 112.5 64.75 C113.33708496 65.23944092 114.17416992 65.72888184 115.03662109 66.2331543 C115.79797363 66.68730713 116.55932617 67.14145996 117.34375 67.609375 C118.00568359 68.00092773 118.66761719 68.39248047 119.34960938 68.79589844 C121 70 121 70 123 73 C123.26006222 75.60407829 123.26006222 75.60407829 123.27415466 78.79391479 C123.28412979 80.00245117 123.29410492 81.21098755 123.30438232 82.45614624 C123.30527813 83.79742419 123.3059417 85.1387023 123.30639648 86.47998047 C123.31401708 87.89101603 123.32244441 89.30204742 123.33161926 90.71307373 C123.35358099 94.54782824 123.36236537 98.382503 123.36744571 102.21731329 C123.37108729 104.61293454 123.3773263 107.00853483 123.3844471 109.4041481 C123.40894734 117.76114064 123.42199474 126.11807105 123.42553711 134.47509766 C123.42917294 142.26586281 123.45906989 150.05623413 123.50094169 157.84687889 C123.53562744 164.53487401 123.55108525 171.22273851 123.55178314 177.91082299 C123.55257655 181.90565752 123.56134377 185.90009098 123.58978081 189.89483261 C123.61593259 193.65262804 123.61818362 197.40968908 123.60212517 201.16753387 C123.60030832 202.54580154 123.60702294 203.92411115 123.62294388 205.30228806 C123.73874575 215.97840204 123.73874575 215.97840204 120.66835022 220.22439575 C117.4311262 222.37854654 114.19840376 224.46495074 110.8125 226.375 C110.08474365 226.79434814 109.3569873 227.21369629 108.60717773 227.64575195 C106.97504162 228.58533438 105.34088895 229.52141977 103.70507812 230.45458984 C100.80301326 232.11253846 97.90873271 233.7835038 95.015625 235.45703125 C89.47890572 238.65889717 83.93759866 241.85272434 78.39501953 245.04443359 C71.8480988 248.81552773 65.30468935 252.59271076 58.76098633 256.36938477 C53.29578707 259.52319079 47.82908972 262.67434329 42.359375 265.8203125 C41.26471924 266.45050293 40.17006348 267.08069336 39.04223633 267.72998047 C36.86568199 268.98281063 34.68844693 270.23445899 32.51049805 271.48486328 C27.21328521 274.53434532 21.94590276 277.62213712 16.72265625 280.796875 C15.22750488 281.70058838 15.22750488 281.70058838 13.70214844 282.62255859 C11.83330363 283.75592865 9.97021755 284.89887347 8.11425781 286.05322266 C-0.62164941 291.34092277 -0.62164941 291.34092277 -6 291 C-9.87186515 289.33362766 -13.39909569 287.18027682 -17 285 C-18.97766066 283.89366219 -20.95950355 282.79476957 -22.9453125 281.703125 C-32.82433728 276.190485 -42.68651923 270.66031257 -52.41674805 264.88842773 C-58.72835255 261.1465211 -65.07995968 257.47573889 -71.4375 253.8125 C-72.53819824 253.17812012 -73.63889648 252.54374023 -74.77294922 251.89013672 C-78.18163637 249.92618461 -81.59074368 247.9629639 -85 246 C-92.69570301 241.56900808 -100.38849318 237.13311298 -108.07519531 232.68652344 C-110.81337322 231.10761417 -113.55798719 229.54058318 -116.3046875 227.9765625 C-117.84911034 227.08880607 -119.3933926 226.20080498 -120.9375 225.3125 C-121.62336182 224.92666748 -122.30922363 224.54083496 -123.01586914 224.14331055 C-126.48679036 222.13316787 -128.94604527 220.45882661 -131 217 C-131.38311005 214.27287388 -131.38311005 214.27287388 -131.39440918 211.08583069 C-131.40575897 209.87591965 -131.41710876 208.66600861 -131.42880249 207.41943359 C-131.42615926 206.08178645 -131.42318805 204.74413991 -131.41992188 203.40649414 C-131.42726267 201.99530871 -131.43584893 200.58412929 -131.44558716 199.17295837 C-131.46781057 195.34235003 -131.47073347 191.51195673 -131.46883965 187.68129277 C-131.46871999 184.48292646 -131.47728218 181.28460578 -131.48561716 178.08625215 C-131.50485404 170.54062479 -131.50773396 162.99510806 -131.50097656 155.44946289 C-131.49433449 147.66604282 -131.51720578 139.88309649 -131.55429029 132.09977251 C-131.58498 125.41598943 -131.59634816 118.73235881 -131.59245348 112.04850668 C-131.59038528 108.05706003 -131.59587572 104.06598205 -131.62034607 100.07460213 C-131.6425992 96.32086992 -131.64074835 92.56790838 -131.62041855 88.81417274 C-131.6170059 87.43752698 -131.62210882 86.06082948 -131.63640213 84.68425369 C-131.74954017 72.9793097 -131.74954017 72.9793097 -128.6204071 69.74897766 C-127.75567276 69.17181503 -126.89093842 68.5946524 -126 68 C-125.16122314 67.43684082 -124.32244629 66.87368164 -123.45825195 66.29345703 C-122.56066162 65.78669434 -121.66307129 65.27993164 -120.73828125 64.7578125 C-119.71541016 64.17451172 -118.69253906 63.59121094 -117.63867188 62.99023438 C-116.54103516 62.37470703 -115.44339844 61.75917969 -114.3125 61.125 C-113.14990346 60.46505018 -111.98780293 59.80422589 -110.82617188 59.14257812 C-108.41547653 57.77037614 -106.00270308 56.40193918 -103.58837891 55.03613281 C-98.03873882 51.89250107 -92.52115705 48.69329284 -87 45.5 C-84.83348261 44.2497413 -82.66681546 42.99974206 -80.5 41.75 C-79.4275 41.13125 -78.355 40.5125 -77.25 39.875 C-74 38 -70.75 36.125 -67.5 34.25 C-66.4265332 33.63068604 -65.35306641 33.01137207 -64.24707031 32.37329102 C-62.09019097 31.12895002 -59.93329008 29.88464636 -57.77636719 28.64038086 C-51.06211852 24.76704917 -44.34839427 20.89281267 -37.63623047 17.01586914 C-35.40743072 15.73017146 -33.17731999 14.44674331 -30.94580078 13.16577148 C-26.4479471 10.58246519 -21.95901054 7.99615526 -17.5390625 5.28125 C-16.90323242 4.89702881 -16.26740234 4.51280762 -15.61230469 4.11694336 C-14.04366157 3.16486781 -12.48596485 2.19481359 -10.9296875 1.22265625 C-7.093768 -0.37820082 -4.03393217 -0.85358039 0 0 Z M-10.4453125 21.0625 C-12.05986328 22.00996094 -12.05986328 22.00996094 -13.70703125 22.9765625 C-14.83496094 23.64429688 -15.96289062 24.31203125 -17.125 25 C-18.26066406 25.66773438 -19.39632812 26.33546875 -20.56640625 27.0234375 C-23.37990536 28.67843697 -26.19096198 30.33744366 -29 32 C-26.07024778 34.2875096 -23.05999635 36.19978792 -19.8359375 38.046875 C-18.80984375 38.63662109 -17.78375 39.22636719 -16.7265625 39.83398438 C-15.62054688 40.46626953 -14.51453125 41.09855469 -13.375 41.75 C-12.20817378 42.41964393 -11.04150991 43.08957084 -9.875 43.75976562 C-7.45212488 45.15148769 -5.02855654 46.54199104 -2.60449219 47.93164062 C2.93690023 51.10971028 8.46791513 54.30576652 14 57.5 C16.15750044 58.74488118 18.31505275 59.98967246 20.47265625 61.234375 C21.54402832 61.85248047 22.61540039 62.47058594 23.71923828 63.10742188 C27.06137856 65.03540755 30.40371485 66.96305304 33.74609375 68.890625 C34.85581543 69.53169189 35.96553711 70.17275879 37.10888672 70.83325195 C39.30611685 72.09850454 41.50690922 73.3575935 43.71142578 74.61010742 C48.72521244 77.46829491 53.64193489 80.3787442 58.43359375 83.59765625 C66.26444568 89.2367305 66.26444568 89.2367305 75.375 90.6171875 C78.62984354 89.06605113 81.16707902 87.22696922 84 85 C85.79651412 83.85961708 87.62009903 82.77562217 89.45166016 81.69262695 C92.00020381 80.17962377 94.49871625 78.58952548 97 77 C94.50615208 74.20436225 91.74784919 72.56746596 88.49609375 70.734375 C87.37638184 70.09943115 86.25666992 69.4644873 85.10302734 68.81030273 C84.5065741 68.47505585 83.91012085 68.13980896 83.29559326 67.79440308 C80.76158447 66.37007921 78.23366239 64.93510114 75.7052002 63.5009613 C74.39750414 62.75946655 73.08947639 62.01855649 71.78112793 61.2782135 C65.45870498 57.69987181 59.16421056 54.07387213 52.875 50.4375 C50.73829841 49.20309529 48.60157962 47.96872036 46.46484375 46.734375 C45.4063623 46.12271484 44.34788086 45.51105469 43.25732422 44.88085938 C39.90339437 42.94421753 36.5476497 41.01075427 33.19140625 39.078125 C30.94009373 37.78126811 28.68879151 36.48439336 26.4375 35.1875 C25.35903809 34.56665527 24.28057617 33.94581055 23.16943359 33.30615234 C18.31727682 30.5086402 13.47415059 27.69870551 8.66015625 24.8359375 C7.86359619 24.36260986 7.06703613 23.88928223 6.24633789 23.40161133 C4.7938606 22.5357448 3.34365882 21.66604464 1.89624023 20.79174805 C-3.72782092 17.4355586 -4.87848149 17.78099961 -10.4453125 21.0625 Z M-55.1875 46.875 C-55.82880859 47.23980469 -56.47011719 47.60460937 -57.13085938 47.98046875 C-60.65871033 49.8851737 -60.65871033 49.8851737 -63 53 C-62.33170166 53.3717334 -61.66340332 53.7434668 -60.97485352 54.12646484 C-38.3905088 66.70023144 -38.3905088 66.70023144 -27.5859375 73.11010742 C-19.06457769 78.16156466 -10.47148256 83.08860171 -1.88671875 88.03125 C2.20474884 90.3869612 6.29321559 92.74761658 10.37678528 95.11698914 C12.15059807 96.14617138 13.92495565 97.17440824 15.69946289 98.20239258 C17.92496506 99.49207672 20.14946996 100.78348384 22.37280273 102.0769043 C24.35913042 103.22671734 26.35263549 104.36425796 28.35449219 105.48681641 C30.00603965 106.43147229 31.63300856 107.42223819 33.21582031 108.47802734 C35.40498063 109.95019205 35.40498063 109.95019205 39 111 C42.27214671 110.01850716 44.76397109 108.2564212 47.5 106.25 C48.22703125 105.755 48.9540625 105.26 49.703125 104.75 C51.48852455 103.52841083 53.24714344 102.26784285 55 101 C52.07024778 98.7124904 49.05999635 96.80021208 45.8359375 94.953125 C44.29679687 94.06850586 44.29679687 94.06850586 42.7265625 93.16601562 C41.62054688 92.53373047 40.51453125 91.90144531 39.375 91.25 C38.20817378 90.58035607 37.04150991 89.91042916 35.875 89.24023438 C33.45212488 87.84851231 31.02855654 86.45800896 28.60449219 85.06835938 C23.06309993 81.89028981 17.53205645 78.69428242 12 75.5 C5.39602754 71.68880445 -1.20884992 67.87919803 -7.81640625 64.07421875 C-8.93708496 63.428479 -10.05776367 62.78273926 -11.21240234 62.11743164 C-13.41920831 60.84612999 -15.62655208 59.57576136 -17.83447266 58.30639648 C-22.670217 55.5214031 -27.49184 52.71957947 -32.26953125 49.8359375 C-33.05706787 49.36260986 -33.84460449 48.88928223 -34.65600586 48.40161133 C-36.08471106 47.53942098 -37.5090951 46.67000803 -38.92797852 45.79174805 C-45.51015647 41.82291823 -48.95088674 43.18537619 -55.1875 46.875 Z M-83.88427734 62.94458008 C-84.8583252 63.54681396 -85.83237305 64.14904785 -86.8359375 64.76953125 C-88.43115234 65.73149414 -88.43115234 65.73149414 -90.05859375 66.71289062 C-91.70021484 67.75219727 -91.70021484 67.75219727 -93.375 68.8125 C-95.05142578 69.8344043 -95.05142578 69.8344043 -96.76171875 70.87695312 C-99.5217381 72.56363162 -102.26608964 74.27143657 -105 76 C-102.4916488 78.81784037 -99.70077062 80.45723723 -96.42578125 82.30078125 C-95.29575684 82.94088135 -94.16573242 83.58098145 -93.00146484 84.24047852 C-92.10050079 84.74649094 -92.10050079 84.74649094 -91.18133545 85.26272583 C-87.98901802 87.05593474 -84.80583354 88.86525434 -81.62109375 90.671875 C-80.97456848 91.03801407 -80.32804321 91.40415314 -79.66192627 91.78138733 C-73.70368245 95.15857227 -67.78435776 98.60052242 -61.875 102.0625 C-52.4070249 107.60276088 -42.92310021 113.11449412 -33.4050293 118.56835938 C-28.33714476 121.47550006 -23.29563726 124.41043048 -18.3125 127.4609375 C-17.00599487 128.250448 -17.00599487 128.250448 -15.6730957 129.0559082 C-14.06344374 130.03156504 -12.46230726 131.02147017 -10.87182617 132.02807617 C-10.16517822 132.4532251 -9.45853027 132.87837402 -8.73046875 133.31640625 C-8.12614014 133.69224854 -7.52181152 134.06809082 -6.89916992 134.45532227 C-3.40310634 135.45798557 -0.6705868 133.34506782 2.40356445 131.76318359 C3.215271 131.31281738 4.02697754 130.86245117 4.86328125 130.3984375 C5.74951172 129.90859375 6.63574219 129.41875 7.54882812 128.9140625 C8.46083984 128.40617187 9.37285156 127.89828125 10.3125 127.375 C11.24384766 126.859375 12.17519531 126.34375 13.13476562 125.8125 C15.42463469 124.54426483 17.71297715 123.27335838 20 122 C18.55416201 117.66248604 15.28157201 116.70637328 11.4375 114.6875 C9.7786002 113.79155341 8.12111882 112.89297701 6.46484375 111.9921875 C5.57651855 111.50975586 4.68819336 111.02732422 3.77294922 110.53027344 C-1.03478307 107.87708925 -5.76478848 105.09242958 -10.5 102.3125 C-22.18018149 95.47081058 -33.89996205 88.69982079 -45.62988281 81.94384766 C-48.55387296 80.25732132 -51.47591784 78.56752998 -54.39663696 76.87535095 C-56.7748599 75.49750497 -59.1538072 74.12091215 -61.53277588 72.74435425 C-63.20596792 71.77549667 -64.8781445 70.80488609 -66.55029297 69.83422852 C-67.57010254 69.24440186 -68.58991211 68.6545752 -69.640625 68.046875 C-70.53297852 67.52963867 -71.42533203 67.01240234 -72.34472656 66.47949219 C-73.2209668 65.99125977 -74.09720703 65.50302734 -75 65 C-75.9801709 64.38503662 -76.9603418 63.77007324 -77.97021484 63.13647461 C-80.96107774 61.65449621 -80.96107774 61.65449621 -83.88427734 62.94458008 Z M-114 92 C-114.56277006 107.01061208 -114.98484873 122.02040463 -115.24349213 137.03934669 C-115.36683991 144.01518591 -115.53461856 150.98444502 -115.81054688 157.95605469 C-116.07708798 164.69375006 -116.21503333 171.42323588 -116.27705383 178.1664238 C-116.32119317 180.72932538 -116.40741981 183.29187843 -116.53752136 185.85185623 C-117.21311152 197.73432363 -117.21311152 197.73432363 -114 209 C-108.13499964 215.0916756 -100.51234044 218.50374523 -92.82886887 221.7680645 C-89.14904878 223.37057816 -85.81113851 225.3060094 -82.375 227.375 C-80.25048064 228.58417821 -78.12549034 229.7925294 -76 231 C-62.15495424 238.88535143 -48.39018011 246.90539602 -34.64697266 254.96679688 C-32.37808575 256.29753367 -30.10872742 257.62746708 -27.83886719 258.95654297 C-25.69125734 260.21406295 -23.5447321 261.47343747 -21.39941406 262.73486328 C-20.44389648 263.29415527 -19.48837891 263.85344727 -18.50390625 264.4296875 C-17.65642822 264.92710449 -16.8089502 265.42452148 -15.93579102 265.93701172 C-14.2219842 267.08022146 -14.2219842 267.08022146 -13 267 C-12.78961769 251.84907389 -12.63098289 236.69821519 -12.53369045 221.54615593 C-12.48731121 214.51041673 -12.42410158 207.4755858 -12.32104492 200.44042969 C-12.22164592 193.65171837 -12.16945029 186.86395141 -12.14610481 180.07455826 C-12.12946723 177.48365545 -12.09697688 174.89280468 -12.04842949 172.30230331 C-11.98313728 168.67419389 -11.97409577 165.04998854 -11.97827148 161.42138672 C-11.92973526 159.81268959 -11.92973526 159.81268959 -11.88021851 158.17149353 C-11.9018413 152.52447091 -11.9018413 152.52447091 -14.96910191 148.02457809 C-17.25485839 146.47998685 -19.52235698 145.20703955 -22 144 C-22.96881104 143.42443359 -23.93762207 142.84886719 -24.93579102 142.25585938 C-25.78326904 141.78986328 -26.63074707 141.32386719 -27.50390625 140.84375 C-28.47900146 140.30371338 -29.45409668 139.76367676 -30.45874023 139.20727539 C-31.48298096 138.64387451 -32.50722168 138.08047363 -33.5625 137.5 C-43.07168998 132.22242414 -52.50512471 126.83406574 -61.88671875 121.33325195 C-70.52092216 116.27140777 -79.19153106 111.27452815 -87.86889648 106.28710938 C-94.57243258 102.42580707 -101.241203 98.51586076 -107.81469727 94.4362793 C-110.69354401 92.55767046 -110.69354401 92.55767046 -114 92 Z M100.296875 94.046875 C99.19666016 94.6965625 99.19666016 94.6965625 98.07421875 95.359375 C97.30722656 95.81828125 96.54023438 96.2771875 95.75 96.75 C94.99847656 97.1934375 94.24695313 97.636875 93.47265625 98.09375 C91.30424353 99.38041723 89.14217509 100.67001502 87 102 C85.93563721 102.4741333 84.87127441 102.9482666 83.7746582 103.43676758 C80.57687847 106.39088015 80.55645378 106.98923893 80.30639648 111.14819336 C80.29921018 113.29550643 80.32278275 115.44306218 80.37109375 117.58984375 C80.36924576 118.72651993 80.36739777 119.86319611 80.36549377 121.03431702 C80.36123721 124.66944039 80.39545485 128.30263636 80.4375 131.9375 C80.47427553 135.56866326 80.50201781 139.1986118 80.49879456 142.82997131 C80.49702444 145.08938642 80.51828015 147.34896318 80.56504822 149.6078949 C80.56299998 157.20919133 80.56299998 157.20919133 77.87133789 160.98999023 C74.83001645 163.11899282 71.80218202 165.06681155 68.5625 166.8828125 C67.65866577 167.39423294 67.65866577 167.39423294 66.73657227 167.91598511 C64.82862861 168.99341975 62.91460288 170.05945246 61 171.125 C59.71571212 171.84688519 58.43185381 172.56953516 57.1484375 173.29296875 C54.78779077 174.6235269 52.42442368 175.94864198 50.05859375 177.27001953 C48.09647364 178.37982023 46.1516778 179.52116991 44.23095703 180.70117188 C40.61625699 182.80559343 38.12820362 182.39950358 34 182 C31.90007714 180.46292111 31.11480279 179.57389091 30.60127258 177.00679016 C30.59016953 176.24956161 30.57906647 175.49233307 30.56762695 174.7121582 C30.54783279 173.85149246 30.52803864 172.99082672 30.50764465 172.1040802 C30.50125473 171.17899155 30.49486481 170.25390289 30.48828125 169.30078125 C30.47033005 168.35059616 30.45237885 167.40041107 30.43388367 166.4214325 C30.37968107 163.38516687 30.34585296 160.34905933 30.3125 157.3125 C30.27933572 155.25453525 30.2448469 153.19659138 30.20898438 151.13867188 C30.1239488 146.09256181 30.05718502 141.04649944 30 136 C26.61636394 137.28436252 23.51797586 138.74761872 20.390625 140.56640625 C19.55402344 141.05173828 18.71742188 141.53707031 17.85546875 142.03710938 C16.56576172 142.79217773 16.56576172 142.79217773 15.25 143.5625 C14.37472656 144.06974609 13.49945313 144.57699219 12.59765625 145.09960938 C8.57189854 147.24027672 8.57189854 147.24027672 5 150 C4.90421407 151.5181852 4.87811853 153.04082396 4.87974548 154.56202698 C4.87837082 155.54785767 4.87699615 156.53368835 4.87557983 157.5493927 C4.87917511 158.63983383 4.88277039 159.73027496 4.88647461 160.85375977 C4.88632858 161.99507355 4.88618256 163.13638733 4.8860321 164.31228638 C4.88673182 168.10534531 4.89452693 171.89835584 4.90234375 175.69140625 C4.90420772 178.31314568 4.90563172 180.93488546 4.90663147 183.55662537 C4.90974449 189.76501955 4.91795748 195.97339621 4.92798096 202.18178266 C4.93914301 209.24817441 4.94465278 216.31456699 4.94967639 223.38096535 C4.96014012 237.92065263 4.977739 252.46032607 5 267 C6.72389692 266.0615335 8.447566 265.12264846 10.17114258 264.18359375 C11.61098259 263.39940063 11.61098259 263.39940063 13.07991028 262.59936523 C17.63686507 260.10347101 22.16471577 257.55717254 26.6875 255 C27.67516357 254.4416748 28.66282715 253.88334961 29.68041992 253.30810547 C37.75505994 248.7306278 45.77999225 244.07122051 53.79003906 239.38183594 C62.33140532 234.38207927 70.90075297 229.43199769 79.48168945 224.50048828 C81.46510988 223.35898139 83.43406599 222.1919006 85.38627625 220.99780273 C87.9552429 219.49131249 90.50151289 218.4031068 93.29553223 217.37887573 C98.22700375 215.37518377 102.60269709 213.2053633 106 209 C109.10708118 200.68446367 107.97085757 191.13375426 107.66015625 182.4296875 C107.62842209 179.82089082 107.60423595 177.21199235 107.58726501 174.60305786 C107.53463092 168.45622599 107.39545741 162.31459633 107.22432369 156.17004597 C107.0336254 149.16947713 106.94067579 142.16864579 106.85550129 135.1661222 C106.67828322 120.77463223 106.37970853 106.3875012 106 92 C103.49403226 92 102.44661971 92.77206281 100.296875 94.046875 Z M59.40234375 117.96875 C58.75515381 118.33419922 58.10796387 118.69964844 57.44116211 119.07617188 C56.20184937 119.7809668 56.20184937 119.7809668 54.9375 120.5 C52.318125 121.985 49.69875 123.47 47 125 C47 136.22 47 147.44 47 159 C48.65 158.34 50.3 157.68 52 157 C53.01868164 156.63253662 54.03736328 156.26507324 55.08691406 155.88647461 C58.70472976 154.26846072 61.20477519 152.83110221 64 150 C65.51597812 144.13206657 65.14107903 138.56457925 64.75 132.5625 C64.68974761 130.95657934 64.63500484 129.35044194 64.5859375 127.74414062 C64.4542286 123.82404485 64.24764713 119.91441209 64 116 C62.25530912 116 60.89323318 117.12352135 59.40234375 117.96875 Z " fill="#000000" transform="translate(316,18)"/>
<path d="M0 0 C1.0878051 0.32994209 1.0878051 0.32994209 2.19758606 0.66654968 C10.16118891 3.12498295 17.98969788 5.96438616 25.8265686 8.79525757 C42.41604152 14.76928318 58.98399507 19.88027233 76.09960938 24.1262207 C79.15307272 24.88885581 82.20000833 25.67008381 85.2421875 26.4765625 C86.52766479 26.8156665 86.52766479 26.8156665 87.83911133 27.16162109 C91.36606642 28.26938252 94.07090195 29.85171716 97.16015625 31.890625 C98.00578125 32.426875 98.85140625 32.963125 99.72265625 33.515625 C105.512734 39.15723922 109.68868097 46.9554422 110.4609375 55.0390625 C110.46480469 56.10382813 110.46867187 57.16859375 110.47265625 58.265625 C110.48941406 59.32523437 110.50617188 60.38484375 110.5234375 61.4765625 C110.07287376 65.71089269 108.78284386 68.96021015 107.16015625 72.890625 C118.3109462 67.6994456 128.84559396 61.62101654 139.39306641 55.30517578 C148.23546978 50.01264126 157.14683981 44.85611238 166.10717773 39.76611328 C173.38549644 35.63109631 180.63374931 31.45099403 187.84350586 27.19726562 C230.85762693 1.85656855 230.85762693 1.85656855 254.57421875 7.07421875 C262.16256004 9.46993375 268.91622305 14.10565343 273.16015625 20.890625 C278.30145952 31.4377359 279.65119631 41.60884583 276.16015625 52.890625 C271.24595697 65.48184527 259.5777556 71.8140122 248.47265625 78.453125 C246.41234472 79.69592571 244.35245748 80.93943002 242.29296875 82.18359375 C241.26204102 82.80540527 240.23111328 83.4272168 239.16894531 84.06787109 C234.70927292 86.76958434 230.27693935 89.51446425 225.84765625 92.265625 C218.06564437 97.09390213 210.27328111 101.90497196 202.47265625 106.703125 C201.38106201 107.37456543 200.28946777 108.04600586 199.16479492 108.73779297 C196.94014801 110.10602832 194.71545704 111.47419204 192.49072266 112.84228516 C187.04648057 116.19056188 181.60336735 119.54067259 176.16015625 122.890625 C173.99349517 124.22396742 171.8268285 125.55730074 169.66015625 126.890625 C168.58765625 127.550625 167.51515625 128.210625 166.41015625 128.890625 C163.16015625 130.890625 159.91015625 132.890625 156.66015625 134.890625 C155.58652832 135.55143066 154.51290039 136.21223633 153.40673828 136.89306641 C151.2518675 138.21891636 149.09659743 139.54411761 146.94091797 140.86865234 C141.92886309 143.94931753 136.92065294 147.03565507 131.92730713 150.14654541 C130.17781271 151.2360571 128.42699858 152.32341641 126.67578125 153.41015625 C124.49346373 154.76530503 122.31357189 156.12437202 120.13671875 157.48828125 C98.0539215 171.17620068 79.72298501 175.58354682 54.16015625 169.890625 C46.90144928 168.14277835 39.70341047 166.1598683 32.5 164.19921875 C30.45469424 163.64727249 28.40924567 163.09585521 26.36366272 162.54493713 C21.027054 161.10610842 15.69246861 159.6599158 10.35827637 158.2121582 C4.92437943 156.73889694 -0.5115668 155.27323662 -5.94726562 153.80664062 C-13.88649282 151.66309403 -21.82515872 149.51749283 -29.76196289 147.36499023 C-30.58127792 147.14312546 -31.40059296 146.92126068 -32.24473572 146.69267273 C-33.01375214 146.48390503 -33.78276855 146.27513733 -34.5750885 146.06004333 C-35.66045489 145.76620412 -35.66045489 145.76620412 -36.76774788 145.46642876 C-38.75086084 144.91535199 -40.71830027 144.32353721 -42.6884613 143.72816467 C-47.09457342 142.55715679 -50.6452034 142.79107902 -54.765625 144.85546875 C-56.46919331 145.84657164 -58.15567011 146.86691161 -59.83984375 147.890625 C-60.49984375 147.890625 -61.15984375 147.890625 -61.83984375 147.890625 C-61.27394531 148.94121094 -60.70804687 149.99179687 -60.125 151.07421875 C-51.25642663 167.88384133 -51.25642663 167.88384133 -53.90234375 177.515625 C-57.23323195 187.80393056 -66.72866995 192.06340024 -75.58984375 196.765625 C-76.84706485 197.44660625 -78.10358212 198.12888857 -79.359375 198.8125 C-88.52627641 203.78887483 -95.55265846 206.9857749 -106.265625 204.27734375 C-115.75631686 200.09406792 -120.18314226 188.98718712 -124.83984375 180.390625 C-126.16513253 177.96776984 -127.49591515 175.54796166 -128.828125 173.12890625 C-129.16306473 172.51997025 -129.49800446 171.91103424 -129.84309387 171.28364563 C-133.13365443 165.32044521 -136.56837871 159.4450284 -140.02734375 153.578125 C-145.00058096 145.12612294 -149.78228496 136.59243429 -154.44433594 127.96533203 C-159.23746203 119.10999177 -164.24218004 110.38221116 -169.25732422 101.65136719 C-172.13270707 96.63519482 -174.9883974 91.60793297 -177.83984375 86.578125 C-178.37988037 85.62945557 -178.91991699 84.68078613 -179.47631836 83.70336914 C-180.9465506 81.10749395 -182.39829655 78.50251923 -183.83984375 75.890625 C-184.25041016 75.16061279 -184.66097656 74.43060059 -185.08398438 73.6784668 C-188.44964199 67.4171779 -188.71503309 61.94627514 -187.83984375 54.890625 C-184.84343059 44.99714248 -173.68274923 39.78744175 -165.33984375 35.140625 C-164.33308594 34.56441406 -163.32632813 33.98820312 -162.2890625 33.39453125 C-153.47287815 28.43759405 -146.9908023 25.88736784 -136.83984375 27.890625 C-128.8657522 30.65088746 -124.52248375 37.666985 -120.83984375 44.890625 C-120.83984375 45.550625 -120.83984375 46.210625 -120.83984375 46.890625 C-109.12038652 40.31331111 -97.43504911 33.68498168 -85.83984375 26.890625 C-77.75848365 22.16289385 -69.66269273 17.46245395 -61.52734375 12.828125 C-60.61533203 12.30412109 -59.70332031 11.78011719 -58.76367188 11.24023438 C-40.42292858 0.83862428 -20.92160013 -6.53450312 0 0 Z M-63.95703125 33.98828125 C-69.87766834 37.52543116 -75.86119841 40.95277504 -81.83984375 44.390625 C-91.87373463 50.16731675 -101.87651883 55.99311373 -111.83984375 61.890625 C-106.63937969 71.96854293 -101.02555564 81.76775546 -95.27270508 91.53979492 C-91.17774163 98.52338989 -87.24161929 105.5761025 -83.40234375 112.703125 C-79.48881558 119.96716229 -75.48118018 127.05936223 -70.83984375 133.890625 C-70.11539063 133.49230469 -69.3909375 133.09398437 -68.64453125 132.68359375 C-66.65276975 131.59210845 -64.65784816 130.50637419 -62.66015625 129.42578125 C-60.62170609 128.31620935 -58.60014626 127.17541491 -56.58984375 126.015625 C-50.93552903 123.70249625 -45.4667614 125.0249886 -39.74755859 126.56787109 C-39.07445145 126.74687958 -38.4013443 126.92588806 -37.70783997 127.11032104 C-35.4865078 127.70329515 -33.26874 128.30860378 -31.05078125 128.9140625 C-29.46810812 129.33926537 -27.88522781 129.76369776 -26.30215454 130.18740845 C-22.11556223 131.31019994 -17.93187759 132.44347478 -13.74871826 133.57897949 C-9.63755263 134.69304943 -5.5237512 135.79728481 -1.41015625 136.90234375 C11.07068747 140.25853097 23.54812665 143.62714918 36.01454353 147.03657341 C39.42190857 147.96802103 42.83008185 148.89649089 46.23832321 149.8247261 C48.6236716 150.47583114 51.00771284 151.13157337 53.39175415 151.78744507 C54.85013257 152.1848766 56.30857439 152.58207558 57.76708984 152.97900391 C59.02991791 153.32508698 60.29274597 153.67117004 61.59384155 154.02774048 C77.69889112 157.92442352 90.78919655 154.95503674 104.76171875 146.58984375 C106.22937657 145.69257264 107.69546671 144.79273335 109.16015625 143.890625 C109.93327148 143.41834473 110.70638672 142.94606445 111.50292969 142.45947266 C116.76736016 139.23926559 122.00542458 135.97782768 127.23974609 132.70898438 C132.42943297 129.47768628 137.63935996 126.27930846 142.84765625 123.078125 C145.05991381 121.71747715 147.27215326 120.35679985 149.484375 118.99609375 C150.5882959 118.31724121 151.6922168 117.63838867 152.82958984 116.93896484 C158.27383193 113.59068812 163.71694515 110.24057741 169.16015625 106.890625 C171.32681733 105.55728258 173.493484 104.22394926 175.66015625 102.890625 C176.73265625 102.230625 177.80515625 101.570625 178.91015625 100.890625 C188.66015625 94.890625 188.66015625 94.890625 191.91137695 92.88989258 C194.07399697 91.55903699 196.2365947 90.22814517 198.39916992 88.8972168 C204.98844084 84.84201362 211.5784362 80.7879923 218.16943359 76.7355957 C220.35153059 75.39295287 222.53286096 74.0490632 224.71337891 72.70385742 C229.90203466 69.5033003 235.09883703 66.31865297 240.3203125 63.171875 C241.28606201 62.58559326 242.25181152 61.99931152 243.24682617 61.39526367 C245.04841932 60.30194066 246.85430706 59.21564929 248.6652832 58.13793945 C253.76597687 55.02903816 257.81400722 52.29260831 260.09375 46.53125 C261.41559997 40.26014783 261.18330836 35.61989454 258.16015625 29.890625 C254.71584758 25.39388868 251.68736456 23.93888864 246.16015625 22.890625 C227.66420461 21.07729641 209.13328254 34.28313614 194.08203125 43.34375 C187.92697609 47.04829556 181.7044495 50.62964915 175.47265625 54.203125 C166.83149705 59.16847548 158.22992868 64.19479231 149.66293335 69.28659058 C147.92863306 70.31714572 146.19358753 71.34643341 144.45825195 72.37524414 C138.62397169 75.83155711 138.62397169 75.83155711 132.79882812 79.30322266 C110.81149067 92.44873271 88.80613982 93.81757651 64.08251953 87.64013672 C63.11813965 87.39279785 62.15375977 87.14545898 61.16015625 86.890625 C60.00112793 86.59559082 58.84209961 86.30055664 57.64794922 85.99658203 C48.79201658 83.72207026 39.97188404 81.33110639 31.16015625 78.890625 C30.19094238 78.62540039 29.22172852 78.36017578 28.22314453 78.08691406 C25.82390094 77.42822808 23.42869751 76.75719526 21.03515625 76.078125 C19.77445313 75.72105469 18.51375 75.36398437 17.21484375 74.99609375 C14.28171598 73.93461656 12.33306769 73.12183406 10.16015625 70.890625 C9.40713527 67.83424573 9.61481911 64.97895535 10.16015625 61.890625 C11.59765625 59.765625 11.59765625 59.765625 14.16015625 58.890625 C20.4594922 59.04962266 26.4506075 60.59965477 32.47265625 62.32421875 C33.32641846 62.56221695 34.18018066 62.80021515 35.05981445 63.04542542 C37.76181787 63.79976764 40.46107035 64.56341623 43.16015625 65.328125 C45.85966633 66.08763424 48.55972792 66.84509656 51.26049805 67.60011292 C52.93206739 68.06795949 54.60286368 68.53858099 56.27270508 69.01255798 C71.17344946 73.74882908 71.17344946 73.74882908 86.03515625 71.328125 C90.78553311 67.62283105 92.80781757 64.35699575 93.66015625 58.390625 C92.81226867 52.45541192 90.62453454 49.15382054 86.203125 45.33984375 C81.52914538 42.12923829 76.52430465 41.37552284 71.03515625 40.328125 C59.63635567 37.9215556 48.65640727 34.70985378 37.59765625 31.078125 C36.41524857 30.69010712 36.41524857 30.69010712 35.20895386 30.29425049 C22.15699846 25.99321104 9.19608454 21.44881478 -3.67797852 16.63989258 C-25.14476254 9.1998519 -46.19077903 23.35961488 -63.95703125 33.98828125 Z M-150.6640625 46.8203125 C-152.32985352 47.76583984 -152.32985352 47.76583984 -154.02929688 48.73046875 C-155.19538244 49.40873394 -156.36139723 50.08712081 -157.52734375 50.765625 C-158.70445595 51.43728946 -159.8821843 52.10787536 -161.06054688 52.77734375 C-166.23861274 55.43248419 -166.23861274 55.43248419 -170.83984375 58.890625 C-170.45398558 63.95051437 -169.29838366 67.46985439 -166.734375 71.8203125 C-165.76467773 73.48803711 -165.76467773 73.48803711 -164.77539062 75.18945312 C-164.06773605 76.38152687 -163.36005302 77.57358372 -162.65234375 78.765625 C-161.92119294 80.01680005 -161.19139515 81.26876666 -160.46289062 82.52148438 C-159.3456146 84.44252496 -158.22762622 86.36309915 -157.10549927 88.28131104 C-153.60197988 94.272571 -150.21158951 100.32432056 -146.83984375 106.390625 C-141.56446052 115.84936073 -136.21313217 125.26275348 -130.8263855 134.65829468 C-126.57277783 142.07881818 -122.35642304 149.51850971 -118.19311523 156.99023438 C-115.92500111 161.05954342 -113.6446982 165.12191376 -111.36035156 169.18212891 C-110.38389564 170.9214998 -109.41153064 172.66317717 -108.44433594 174.40771484 C-107.2378686 176.57817768 -106.01155244 178.73585491 -104.77734375 180.890625 C-104.44355713 181.50204346 -104.10977051 182.11346191 -103.76586914 182.7434082 C-102.28317034 185.28437056 -101.36616751 186.7051564 -98.54174805 187.70043945 C-95.13237409 187.9404234 -93.60509175 187.10656354 -90.64453125 185.43359375 C-89.68160156 184.89798828 -88.71867187 184.36238281 -87.7265625 183.81054688 C-86.73269531 183.23884766 -85.73882812 182.66714844 -84.71484375 182.078125 C-83.71324219 181.51802734 -82.71164063 180.95792969 -81.6796875 180.38085938 C-77.99129657 178.30892434 -74.36077082 176.23790971 -70.83984375 173.890625 C-69.66689779 167.89760422 -72.86020705 163.68686781 -75.83984375 158.765625 C-76.94725688 156.88319021 -78.05399223 155.00035657 -79.16015625 153.1171875 C-79.75602539 152.11204102 -80.35189453 151.10689453 -80.96582031 150.07128906 C-83.92549953 145.0480086 -86.81298792 139.98362475 -89.70068359 134.91876221 C-90.72360916 133.12525651 -91.74834786 131.33279689 -92.7734375 129.54052734 C-97.74992986 120.83409722 -102.65839174 112.09065065 -107.54589844 103.33398438 C-112.63642544 94.22583464 -117.79354637 85.1563426 -122.99316406 76.11010742 C-126.16350689 70.59188996 -129.30927781 65.0633574 -132.37890625 59.48828125 C-132.92401855 58.50698242 -133.46913086 57.52568359 -134.03076172 56.51464844 C-135.0430626 54.68914625 -136.04531368 52.85802139 -137.03564453 51.02050781 C-137.48149902 50.2209668 -137.92735352 49.42142578 -138.38671875 48.59765625 C-138.76666992 47.9013208 -139.14662109 47.20498535 -139.53808594 46.48754883 C-140.74572731 44.78732942 -140.74572731 44.78732942 -142.62915039 43.97583008 C-145.92141832 43.84893869 -147.82618344 45.19168686 -150.6640625 46.8203125 Z " fill="#000000" transform="translate(197.83984375,300.109375)"/>
<path d="M0 0 C2.98792348 2.40961571 3.01420136 4.09940954 3.5625 7.9375 C3.69140625 9.90234375 3.69140625 9.90234375 3 12 C-2.14848263 17.15725347 -8.6397395 20.62526617 -14.875 24.3125 C-15.92558594 24.95767578 -16.97617187 25.60285156 -18.05859375 26.26757812 C-23.97283592 29.76504925 -28.08327747 32.0586008 -35 31 C-38.06458538 28.95694308 -38.82153128 27.55920198 -39.9375 24.0625 C-40.01411663 20.30828516 -39.17411699 19.02024393 -37 16 C-34.7668457 14.30249023 -34.7668457 14.30249023 -32.17578125 12.80859375 C-31.22896484 12.25623047 -30.28214844 11.70386719 -29.30664062 11.13476562 C-28.31857422 10.57466797 -27.33050781 10.01457031 -26.3125 9.4375 C-25.34376953 8.87353516 -24.37503906 8.30957031 -23.37695312 7.72851562 C-6.48735429 -2.03524841 -6.48735429 -2.03524841 0 0 Z " fill="#000000" transform="translate(489,55)"/>
<path d="M0 0 C1.03350586 0.60408691 2.06701172 1.20817383 3.13183594 1.83056641 C4.26878906 2.49056641 5.40574219 3.15056641 6.57714844 3.83056641 C7.15819336 4.17571289 7.73923828 4.52085938 8.33789062 4.87646484 C10.11888142 5.93371418 11.90934269 6.97319077 13.70214844 8.01025391 C23.70557237 13.86647248 23.70557237 13.86647248 25.86621094 16.55712891 C26.89358765 20.51986766 27.27193562 22.66839864 25.55371094 26.43212891 C23.25673 29.32462342 22.26134682 29.4953304 18.56933594 30.07275391 C12.42224554 29.98946 7.49277109 26.45978435 2.37402344 23.36816406 C0.61611478 22.30707086 -1.15521779 21.27214904 -2.93066406 20.24072266 C-12.67550665 14.48545438 -12.67550665 14.48545438 -16.13378906 10.55712891 C-17.06245416 6.81321924 -16.63753559 3.49265817 -14.82128906 0.11962891 C-10.40275048 -3.97161052 -4.98265025 -2.2941308 0 0 Z " fill="#000000" transform="translate(148.1337890625,56.44287109375)"/>
<path d="M0 0 C4.3157454 0.95684754 8.55980986 2.10862273 12.8125 3.3125 C13.91787109 3.60833984 15.02324219 3.90417969 16.16210938 4.20898438 C26.65965982 7.14576133 26.65965982 7.14576133 30 11 C30.9263107 14.0949675 30.69025794 16.85932637 30 20 C28.125 22.625 28.125 22.625 25 24 C17.20652733 24.1220496 9.61297682 21.78954893 2.1875 19.6875 C1.08212891 19.39166016 -0.02324219 19.09582031 -1.16210938 18.79101562 C-11.37226115 15.93464084 -11.37226115 15.93464084 -15 12 C-16.23674251 8.36706886 -16.34458203 6.75808047 -14.75 3.25 C-10.41334361 -2.32570108 -6.29490701 -1.07315079 0 0 Z " fill="#000000" transform="translate(472,125)"/>
<path d="M0 0 C2.46287482 2.60361052 3.10077819 3.75690576 3.1875 7.3125 C2.12016514 11.38777855 0.69581033 13.08104375 -2.8125 15.3125 C-5.83349609 16.38745117 -5.83349609 16.38745117 -9.3359375 17.35546875 C-10.604375 17.70673828 -11.8728125 18.05800781 -13.1796875 18.41992188 C-14.16727051 18.68567017 -14.16727051 18.68567017 -15.17480469 18.95678711 C-17.17744178 19.49728535 -19.17463291 20.0551703 -21.171875 20.61523438 C-32.50882136 23.71392306 -32.50882136 23.71392306 -37.8125 23.3125 C-40.89614499 21.46231301 -42.45155184 20.25096522 -43.75 16.875 C-43.82572099 13.77043949 -43.31399761 12.02949568 -41.8125 9.3125 C-38.61128787 6.40489569 -35.42153333 5.41167867 -31.2890625 4.26953125 C-29.38640625 3.74262695 -29.38640625 3.74262695 -27.4453125 3.20507812 C-26.78692383 3.0279126 -26.12853516 2.85074707 -25.45019531 2.66821289 C-23.44755822 2.12771465 -21.45036709 1.5698297 -19.453125 1.00976562 C-4.93205003 -2.95923002 -4.93205003 -2.95923002 0 0 Z " fill="#000000" transform="translate(164.8125,125.6875)"/>
<path d="M0 0 C3.40549364 2.86656319 4.70582909 5.24149939 5.88671875 9.5 C6.18513672 10.551875 6.48355469 11.60375 6.79101562 12.6875 C7.08685547 13.780625 7.38269531 14.87375 7.6875 16 C8.14866211 17.6396875 8.14866211 17.6396875 8.61914062 19.3125 C12.86405526 34.47158247 12.86405526 34.47158247 12 41 C10.07309057 43.85468064 8.77454827 44.72195703 5.5625 45.875 C2.39881585 46.02932606 0.74416216 45.58872546 -2 44 C-5.74461965 38.58296231 -7.01108533 32.53568007 -8.6875 26.25 C-9.00783203 25.10789062 -9.32816406 23.96578125 -9.65820312 22.7890625 C-11.3970593 16.33786901 -12.52461204 10.68369363 -12 4 C-9.33965416 -0.54475748 -4.91183732 -1.30470679 0 0 Z " fill="#000000" transform="translate(206,7)"/>
<path d="M0 0 C2.5 1.4375 2.5 1.4375 4 4 C4.61854881 11.88047253 2.8065653 18.69470078 0.6875 26.25 C0.37876953 27.40757813 0.07003906 28.56515625 -0.24804688 29.7578125 C-3.00567386 39.81299131 -3.00567386 39.81299131 -6 44 C-10.16185424 45.88461324 -12.05130188 46.35136967 -16.375 44.75 C-19 43 -19 43 -20 41 C-20.62115257 33.26828514 -18.89343044 26.51872605 -16.80175781 19.09570312 C-16.24660783 17.11288426 -15.72019086 15.12383154 -15.1953125 13.1328125 C-14.84726562 11.8746875 -14.49921875 10.6165625 -14.140625 9.3203125 C-13.82641602 8.17836426 -13.51220703 7.03641602 -13.18847656 5.85986328 C-10.6482579 -0.25273355 -6.04089458 -1.06458388 0 0 Z " fill="#000000" transform="translate(426,7)"/>
<path d="M0 0 C3.0625 1.875 3.0625 1.875 5 5 C5.87646572 9.11264682 6.18358551 13.0632237 3.92578125 16.7578125 C1.24137215 19.33190342 -1.45115808 20.33636284 -5.0625 20.5625 C-9.36116046 19.94840565 -11.01296996 19.0775461 -14 16 C-15.60086627 12.79826746 -15.49917089 9.47422941 -15 6 C-11.06063944 -0.17166488 -7.00513558 -1.01453688 0 0 Z " fill="#000000" transform="translate(55,359)"/>
</svg>
