<?xml version="1.0" encoding="UTF-8"?>
<svg version="1.1" xmlns="http://www.w3.org/2000/svg" width="512" height="512">
<path d="M0 0 C1.34573593 -0.00855011 1.34573593 -0.00855011 2.71865845 -0.01727295 C4.62346214 -0.02672566 6.52828221 -0.03325801 8.43310547 -0.03710938 C11.30596912 -0.04672244 14.17808836 -0.07770362 17.05078125 -0.109375 C35.55291677 -0.21747397 51.717312 2.28146495 65.65625 15.66015625 C77.40137763 28.53234158 80.47311155 43.40045923 83.69628906 59.97851562 C84.2312321 62.727118 84.77877859 65.4729937 85.328125 68.21875 C85.67521061 69.97381384 86.02159085 71.72901736 86.3671875 73.484375 C86.61085052 74.70936707 86.61085052 74.70936707 86.85943604 75.95910645 C87.53614123 79.45990577 87.9765625 82.6236608 87.9765625 86.203125 C89.48206917 86.18980133 89.48206917 86.18980133 91.01799011 86.1762085 C100.47884977 86.09510492 109.93963885 86.0351511 119.40076733 85.99587631 C124.26480287 85.97500583 129.12855767 85.946698 133.99243164 85.90136719 C138.68679372 85.85789024 143.38088584 85.83398383 148.07543373 85.82361603 C149.86601321 85.81622798 151.65657799 85.80180074 153.44704247 85.78020477 C155.95614873 85.75114575 158.46414107 85.74716997 160.97338867 85.74902344 C161.71282211 85.73464233 162.45225555 85.72026123 163.21409607 85.70544434 C166.8550046 85.73452559 168.82786551 86.10678186 171.91426086 88.10650635 C175.49226103 91.74404499 175.36766287 94.78733372 175.33203125 99.71875 C174.9765625 102.203125 174.9765625 102.203125 172.6640625 105.265625 C168.32488472 108.39386944 165.07740595 108.3255373 159.84301758 108.31665039 C159.12081528 108.31679642 158.39861298 108.31694244 157.65452576 108.3170929 C155.26835116 108.31639645 152.88225471 108.3086166 150.49609375 108.30078125 C148.8412836 108.29891612 147.18647289 108.29749266 145.53166199 108.29649353 C141.17675247 108.29267585 136.82187632 108.28285195 132.46697998 108.27178955 C128.02291312 108.26155933 123.57884087 108.25699245 119.13476562 108.25195312 C110.41534927 108.24122902 101.69596004 108.22416157 92.9765625 108.203125 C93.21665039 109.39103638 93.45673828 110.57894775 93.70410156 111.80285645 C114.14527572 212.94661745 114.14527572 212.94661745 123.31103516 258.69824219 C124.00420448 262.1582097 124.69825333 265.61799893 125.39306641 269.07763672 C126.1999514 273.09572177 127.00495969 277.11417789 127.80836868 281.13295937 C128.09929908 282.58677328 128.39086604 284.04045997 128.68311691 285.49400902 C129.07618286 287.44966653 129.46663868 289.40584813 129.85693359 291.36206055 C130.18375626 292.99403633 130.18375626 292.99403633 130.5171814 294.65898132 C130.9765625 297.203125 130.9765625 297.203125 130.9765625 299.203125 C216.4465625 299.203125 301.9165625 299.203125 389.9765625 299.203125 C390.3065625 296.233125 390.6365625 293.263125 390.9765625 290.203125 C391.63361224 286.26145682 392.45942008 282.3617747 393.2890625 278.453125 C393.58973633 276.93138672 393.58973633 276.93138672 393.89648438 275.37890625 C395.01961218 270.08664459 395.91480193 266.06220291 399.9765625 262.203125 C403.47896698 260.45192276 407.15488105 260.65808654 410.9765625 261.203125 C413.98770195 262.47850431 414.78619012 263.51991884 416.9765625 266.203125 C418.60695326 272.36113863 417.77915996 278.27508844 416.5 284.40234375 C416.24931259 285.66036552 416.24931259 285.66036552 415.99356079 286.94380188 C415.63878487 288.70229253 415.27706813 290.45939603 414.90869141 292.21508789 C414.3517211 294.88986337 413.82906808 297.56986696 413.30859375 300.25195312 C412.95778088 301.96917042 412.60498346 303.68598374 412.25 305.40234375 C412.09767914 306.19621994 411.94535828 306.99009613 411.78842163 307.80802917 C410.61877641 313.19867956 408.86732672 316.26606948 404.9765625 320.203125 C402.39431785 321.49424732 400.54612349 321.33038544 397.65317059 321.33341026 C395.94844224 321.33884678 395.94844224 321.33884678 394.20927495 321.34439313 C392.95006208 321.34332488 391.69084922 321.34225663 390.39347839 321.34115601 C389.05062998 321.34357264 387.7077823 321.34643446 386.3649357 321.34970534 C382.66219063 321.3574799 378.95946407 321.35907889 375.25671184 321.35975647 C371.26819661 321.36159238 367.27969231 321.36919707 363.29118347 321.37623596 C356.37547631 321.38777441 349.4597716 321.39601201 342.54405785 321.40235519 C331.61670187 321.41266789 320.68937645 321.43322787 309.76203918 321.45547485 C306.02583228 321.46295498 302.28962524 321.47036865 298.55341816 321.47776222 C297.15274605 321.48053807 297.15274605 321.48053807 295.72377753 321.48337 C285.08855974 321.50430738 274.45333857 321.52313081 263.81811523 321.54101562 C262.84561737 321.54265381 261.87311951 321.54429199 260.87115202 321.54597981 C245.1092705 321.57226832 229.34738662 321.59090918 213.58549245 321.60760753 C197.41376989 321.62501716 181.24209343 321.65385064 165.07040769 321.6924969 C155.08969735 321.71592016 145.10906217 321.72989356 135.12832413 321.73182453 C128.29007699 321.73393101 121.45190464 321.74683584 114.61369105 321.76830386 C110.66576958 321.78035326 106.7179966 321.78747073 102.77005768 321.78159142 C99.15711553 321.7763072 95.54447668 321.7847341 91.93158523 321.80414779 C90.00275934 321.81090882 88.07389921 321.80288551 86.14508027 321.79437006 C84.42861706 321.80762982 84.42861706 321.80762982 82.67747784 321.82115746 C81.19648603 321.82319225 81.19648603 321.82319225 79.68557519 321.82526815 C76.45205681 322.27628378 74.59812916 323.2807364 71.9765625 325.203125 C69.47624596 328.95359982 69.44052696 330.76168766 69.9765625 335.203125 C72.68848008 338.66835301 74.6691948 340.47465131 78.9765625 341.203125 C81.05012981 341.29394576 83.12642434 341.32792115 85.20197964 341.32782364 C86.48874991 341.33021459 87.77552018 341.33260554 89.10128349 341.33506894 C90.53240181 341.33269042 91.96352 341.33023042 93.39463806 341.32769775 C94.9124537 341.32868382 96.4302691 341.33012081 97.94808394 341.33197093 C101.25214411 341.33503285 104.55618415 341.33492019 107.86024475 341.33241463 C113.23573845 341.32835854 118.61121636 341.33112217 123.98670959 341.33476257 C130.77858672 341.33885452 137.57046031 341.34109224 144.36233867 341.34117857 C157.70499984 341.34138116 171.04762462 341.35383238 184.39027405 341.37078857 C186.48981648 341.37339437 188.58935892 341.37599318 190.68890136 341.3785851 C193.87085451 341.38252353 197.05280764 341.38647004 200.23476074 341.39044632 C212.23324727 341.4053949 224.2317349 341.41901876 236.23022461 341.43115234 C237.87568363 341.43282269 237.87568363 341.43282269 239.55438424 341.43452677 C257.34017156 341.45211069 275.12593614 341.45497026 292.9117307 341.45330194 C311.1627509 341.45202396 329.41368626 341.46973055 347.66467386 341.50431991 C358.9276854 341.52499801 370.19049399 341.53028615 381.45351637 341.5159916 C389.16827196 341.50754766 396.8828694 341.51722423 404.59759157 341.5413011 C409.05192702 341.55463932 413.50588341 341.55974484 417.96021652 341.54318047 C422.03582627 341.5281916 426.11072008 341.5360697 430.18626673 341.56235 C431.66266689 341.56778658 433.13912714 341.56472574 434.61548614 341.55243304 C436.61871339 341.53697438 438.62211637 341.55514153 440.62530422 341.5750618 C441.73913398 341.57565889 442.85296374 341.57625597 444.00054592 341.57687116 C447.93830632 342.4055082 449.44636739 344.15058202 451.9765625 347.203125 C453.11437849 350.2180752 453.26978063 353.00028078 452.9765625 356.203125 C450.96284686 360.30513835 449.23179514 362.58228092 444.9765625 364.203125 C442.11241233 364.454974 442.11241233 364.454974 438.71825981 364.45760059 C437.42412285 364.46343279 436.12998588 364.46926498 434.79663265 364.47527391 C433.35716828 364.47164054 431.91770438 364.46781616 430.47824097 364.46382141 C428.95161283 364.46684091 427.42498621 364.47072938 425.89836228 364.47541398 C421.69669598 364.48572923 417.49511468 364.48350318 413.2934413 364.47923338 C408.76429789 364.47677244 404.23517528 364.48577261 399.70603943 364.49327087 C390.82915222 364.50603894 381.95229524 364.50780883 373.0754004 364.50547061 C365.85923491 364.50368913 358.64307861 364.50543346 351.42691422 364.50969505 C349.88756947 364.51058784 349.88756947 364.51058784 348.31712685 364.51149866 C346.23242329 364.51271039 344.14771974 364.51392453 342.06301619 364.51514103 C322.4981546 364.52602533 302.93331024 364.52385026 283.36844768 364.51775619 C265.47285738 364.51258999 247.57732157 364.52383304 229.68174206 364.54285441 C211.30982037 364.56223238 192.93792445 364.57048864 174.56599247 364.56673115 C164.25040656 364.56481857 153.93486698 364.56731199 143.6192894 364.58144569 C134.83434531 364.59336017 126.04947606 364.59476386 117.26453094 364.58265553 C112.783326 364.57676644 108.30225792 364.57566812 103.82106209 364.58765793 C99.71513914 364.59851574 95.60946735 364.59541457 91.50355615 364.58139624 C90.0216773 364.57874896 88.53977878 364.58111685 87.05791925 364.58913211 C75.51771913 364.64719697 66.08276102 363.80578111 57.01953125 356.234375 C50.81033673 350.06079727 46.78074053 343.0143099 46.59594727 334.17553711 C46.62362217 323.22229008 48.40777368 316.20801148 56.05078125 307.9921875 C63.21108613 301.3402207 70.71353913 298.87512536 80.4375 299.0078125 C81.22806793 299.0106424 82.01863586 299.01347229 82.8331604 299.01638794 C85.33945334 299.02751545 87.84537895 299.05260574 90.3515625 299.078125 C92.05858856 299.08816442 93.76562027 299.09728859 95.47265625 299.10546875 C99.64076966 299.12572197 103.80859303 299.16362774 107.9765625 299.203125 C107.84772517 298.61942202 107.71888784 298.03571903 107.58614635 297.43432808 C102.502246 274.28880006 97.90633819 251.04659694 93.28525734 227.805233 C91.84585311 220.56623865 90.40269473 213.32799567 88.95890808 206.08987427 C84.85876014 185.53201351 80.76270417 164.97333997 76.67211914 144.41357422 C74.40239412 133.00583456 72.12921148 121.59878943 69.852256 110.1924907 C68.41746286 103.00393976 66.98691979 95.81456063 65.55956805 88.62452865 C64.67205426 84.15917055 63.78049155 79.69462804 62.88778877 75.23030472 C62.47614322 73.16752114 62.06614371 71.10440826 61.65794754 69.04093933 C61.09889609 66.21614657 60.53384448 63.39261583 59.96736145 60.56930542 C59.80899097 59.76152456 59.65062049 58.9537437 59.4874509 58.12148464 C57.15640433 46.59696232 54.59764213 35.76365892 44.4140625 28.765625 C36.29681159 23.68691721 28.29720433 23.07598744 18.9375 23.02734375 C17.20571674 23.00416582 15.47394583 22.98004934 13.7421875 22.95507812 C11.03864978 22.91988094 8.3355758 22.89054607 5.63183594 22.87719727 C3.00400542 22.86171983 0.37748386 22.82154632 -2.25 22.77734375 C-3.05531158 22.77925217 -3.86062317 22.78116058 -4.69033813 22.78312683 C-9.70886379 22.67392116 -12.38365346 21.97835313 -16.0234375 18.203125 C-17.88199032 14.48601937 -17.60252189 10.25035219 -17.0234375 6.203125 C-12.24760752 -0.12162282 -7.41449697 0.03653698 0 0 Z " fill="#000000" transform="translate(17.0234375,41.796875)"/>
<path d="M0 0 C26.2322632 21.26579914 43.95529823 46.10368378 52.9375 78.9375 C53.12812012 79.61039062 53.31874023 80.28328125 53.51513672 80.9765625 C58.73124823 100.30949056 58.44404768 126.72829523 52.9375 145.9375 C52.59090332 147.15687256 52.59090332 147.15687256 52.23730469 148.40087891 C45.30264519 172.07031103 34.17352406 192.27682027 16.9375 209.9375 C16.17179688 210.77667969 15.40609375 211.61585938 14.6171875 212.48046875 C-5.78750774 234.23394893 -34.91341281 246.77334469 -64.0625 250.9375 C-64.91199219 251.06769531 -65.76148438 251.19789063 -66.63671875 251.33203125 C-100.44860961 255.63745029 -137.80375401 246.38343888 -164.86328125 225.49609375 C-165.9318209 224.64590359 -166.9982162 223.79301171 -168.0625 222.9375 C-168.61341309 222.50324707 -169.16432617 222.06899414 -169.73193359 221.62158203 C-198.02780409 199.19302786 -215.57855605 167.52561182 -221.0625 131.9375 C-221.19527344 131.091875 -221.32804688 130.24625 -221.46484375 129.375 C-225.79247868 95.22818191 -216.7210609 58.52251797 -196.0625 30.9375 C-195.41152344 30.06480469 -194.76054687 29.19210938 -194.08984375 28.29296875 C-183.90293858 15.28800383 -172.06686915 3.73754278 -158.0625 -5.0625 C-157.44826172 -5.45131348 -156.83402344 -5.84012695 -156.20117188 -6.24072266 C-109.51129048 -35.296195 -43.9933375 -33.96000121 0 0 Z M-173.0625 37.9375 C-184.10843296 51.08020028 -191.42570463 66.48038916 -196.0625 82.9375 C-196.54203125 84.54818359 -196.54203125 84.54818359 -197.03125 86.19140625 C-204.30322382 115.24563498 -198.27869803 146.88909995 -183.46801758 172.50073242 C-180.12715152 178.05519576 -176.34550278 183.07045139 -172.0625 187.9375 C-171.36125 188.7934375 -170.66 189.649375 -169.9375 190.53125 C-152.02036986 211.59598409 -124.68039842 226.28920837 -97.0625 228.9375 C-95.95648438 229.06898438 -94.85046875 229.20046875 -93.7109375 229.3359375 C-64.91627174 232.11058409 -33.8056635 223.77380542 -11.21923828 205.44140625 C-7.34417253 202.0952907 -3.69920604 198.53904452 -0.0625 194.9375 C1.05898438 193.90689453 1.05898438 193.90689453 2.203125 192.85546875 C21.61691528 174.70281052 33.18848423 145.38084753 34.21875 119.19921875 C34.99705368 85.22410095 24.43192149 56.33918205 1.23046875 31.30078125 C-19.09741023 10.34956016 -46.56099411 -3.25411368 -76 -4.3984375 C-114.60159247 -4.97199369 -147.38990148 9.01965981 -173.0625 37.9375 Z " fill="#000000" transform="translate(456.0625,26.0625)"/>
<path d="M0 0 C9.57362551 7.58525713 16.0684556 17.77708636 17.5390625 30.01171875 C18.62682662 43.04546389 14.85929779 54.3330995 6.9140625 64.63671875 C-0.15672531 72.45275669 -10.55523797 77.83550313 -21.109375 78.4453125 C-22.68472358 78.46864613 -24.26054705 78.46952973 -25.8359375 78.44921875 C-26.66520752 78.44164551 -27.49447754 78.43407227 -28.34887695 78.42626953 C-38.80389277 78.14637951 -46.62321874 74.89890566 -54.4609375 68.01171875 C-55.06679688 67.51027344 -55.67265625 67.00882812 -56.296875 66.4921875 C-62.78460873 60.67022557 -67.86838117 51.78647659 -68.63793945 42.98803711 C-69.06609883 28.06045647 -67.62146316 16.73232512 -57.4609375 5.01171875 C-41.32388131 -10.13853904 -18.56637466 -12.76103849 0 0 Z M-39.8359375 19.19921875 C-44.31236451 23.99539054 -46.65539553 28.38145804 -46.9609375 35.01171875 C-46.67828632 40.95651131 -44.89166862 45.4197069 -40.8125 49.76953125 C-35.239229 54.80737883 -30.54147844 56.5175876 -23.01953125 56.31640625 C-17.89008029 55.70557087 -14.17705 53.86990593 -10.66796875 50.0703125 C-5.44827834 43.33802772 -4.50582655 37.47893831 -5.4609375 29.01171875 C-7.80457316 22.97272396 -11.94046699 19.24135007 -17.3359375 15.82421875 C-25.10225782 12.85474333 -33.17422166 14.22401325 -39.8359375 19.19921875 Z " fill="#000000" transform="translate(388.4609375,433.98828125)"/>
<path d="M0 0 C9.57362551 7.58525713 16.0684556 17.77708636 17.5390625 30.01171875 C18.62682662 43.04546389 14.85929779 54.3330995 6.9140625 64.63671875 C-0.15672531 72.45275669 -10.55523797 77.83550313 -21.109375 78.4453125 C-22.68472358 78.46864613 -24.26054705 78.46952973 -25.8359375 78.44921875 C-26.66520752 78.44164551 -27.49447754 78.43407227 -28.34887695 78.42626953 C-38.80389277 78.14637951 -46.62321874 74.89890566 -54.4609375 68.01171875 C-55.06679687 67.51027344 -55.67265625 67.00882812 -56.296875 66.4921875 C-62.78460873 60.67022557 -67.86838117 51.78647659 -68.63793945 42.98803711 C-69.06609883 28.06045647 -67.62146316 16.73232512 -57.4609375 5.01171875 C-41.32388131 -10.13853904 -18.56637466 -12.76103849 0 0 Z M-39.8359375 19.19921875 C-44.31236451 23.99539054 -46.65539553 28.38145804 -46.9609375 35.01171875 C-46.67828632 40.95651131 -44.89166862 45.4197069 -40.8125 49.76953125 C-35.239229 54.80737883 -30.54147844 56.5175876 -23.01953125 56.31640625 C-17.89008029 55.70557087 -14.17705 53.86990593 -10.66796875 50.0703125 C-5.44827834 43.33802772 -4.50582655 37.47893831 -5.4609375 29.01171875 C-7.80457316 22.97272396 -11.94046699 19.24135007 -17.3359375 15.82421875 C-25.10225782 12.85474333 -33.17422166 14.22401325 -39.8359375 19.19921875 Z " fill="#000000" transform="translate(196.4609375,433.98828125)"/>
<path d="M0 0 C3.4431146 2.09580889 5.7468218 4.1265401 7 8 C7.76992559 12.13835005 6.90727313 14.59817315 4.75 18.0625 C1.41730304 22.75033615 -2.46373048 26.88601081 -6.40332031 31.06079102 C-9.58497797 34.43603382 -12.5992262 37.87535368 -15.5 41.5 C-19.31994011 46.26108478 -23.38938819 50.71273025 -27.55859375 55.1640625 C-30.67568554 58.51116869 -33.63581113 61.93014141 -36.5 65.5 C-39.84302158 69.66666457 -43.35116931 73.60417858 -47 77.5 C-51.46822132 82.2714371 -55.66262546 87.18548504 -59.76171875 92.28125 C-71.54929264 106.5991408 -71.54929264 106.5991408 -76.1015625 107.34375 C-76.93429687 107.3953125 -77.76703125 107.446875 -78.625 107.5 C-79.85089844 107.60828125 -79.85089844 107.60828125 -81.1015625 107.71875 C-88.92827976 105.77789289 -95.68534839 96.47494354 -101.2421875 90.92578125 C-102.09177032 90.07952682 -102.94135315 89.2332724 -103.81668091 88.3613739 C-105.5978438 86.58524278 -107.377682 84.8077823 -109.15625 83.02905273 C-111.88261018 80.30489597 -114.61689091 77.58885697 -117.3515625 74.87304688 C-119.08642624 73.14111443 -120.82081809 71.40870914 -122.5546875 69.67578125 C-123.37234589 68.86530838 -124.19000427 68.05483551 -125.03244019 67.21980286 C-125.78727692 66.4618895 -126.54211365 65.70397614 -127.31982422 64.9230957 C-127.98408417 64.26026077 -128.64834412 63.59742584 -129.33273315 62.914505 C-131.5554493 60.3621834 -132.91493079 58.21932529 -133.15234375 54.81640625 C-132.77215481 50.82787869 -132.23872318 48.37733664 -130.0625 44.9375 C-125.57950661 42.10132051 -122.14163151 41.92908367 -117 43 C-115.27075195 44.0793457 -115.27075195 44.0793457 -113.61328125 45.61328125 C-112.58714722 46.56243408 -112.58714722 46.56243408 -111.5402832 47.53076172 C-105.63283663 53.27299282 -99.80657014 59.09348179 -94 64.9375 C-92.63955682 66.30296745 -91.27888169 67.66820386 -89.91796875 69.03320312 C-86.6092969 72.35280886 -83.30378678 75.67553273 -80 79 C-73.16803905 72.19498119 -66.66961022 65.14229707 -60.625 57.625 C-56.75781137 52.8285929 -52.65019284 48.3295854 -48.44189453 43.83642578 C-45.32460664 40.48918215 -42.36433518 37.07004094 -39.5 33.5 C-35.68517583 28.74529162 -31.62608818 24.29410804 -27.45458984 19.85571289 C-24.16690702 16.33484988 -21.11353765 12.71593733 -18.125 8.9375 C-12.69856759 2.25431753 -8.93425974 -1.13450917 0 0 Z " fill="#000000" transform="translate(431,85)"/>
</svg>
