<?xml version="1.0" encoding="UTF-8"?>
<svg version="1.1" xmlns="http://www.w3.org/2000/svg" width="512" height="512">
<path d="M0 0 C15.86044858 -0.09486971 31.72082846 -0.17172792 47.58149636 -0.21865356 C55.44055397 -0.24227202 63.29938893 -0.27385389 71.15831006 -0.3266238 C77.83083998 -0.37133774 84.50316118 -0.39900551 91.17584407 -0.40403861 C94.57078869 -0.40709197 97.96519894 -0.41820266 101.35999691 -0.45108402 C105.02983981 -0.48235702 108.6984241 -0.48292842 112.36836255 -0.47551906 C113.43973115 -0.49192723 114.51109976 -0.50833539 115.61493409 -0.52524078 C122.82662114 -0.46411015 122.82662114 -0.46411015 126.65257275 2.52432835 C127.59627224 3.80323445 127.59627224 3.80323445 128.55903637 5.10797703 C129.11808667 5.74219578 129.67713696 6.37641453 130.25312817 7.02985203 C130.99816601 7.93477391 130.99816601 7.93477391 131.75825512 8.85797703 C132.32230053 9.54190526 132.88634594 10.22583348 133.46748364 10.9304868 C134.34811474 12.00834446 134.34811474 12.00834446 135.24653637 13.10797703 C135.86520581 13.86199803 136.48387524 14.61601902 137.12129223 15.39288914 C141.52562836 20.78396101 145.79001513 26.26247698 150.00434887 31.80328953 C152.92488454 35.61318737 155.9596528 39.32811889 158.99653637 43.04547703 C165.40188678 50.88775138 171.6627943 58.83533894 177.89302075 66.81696141 C179.23878962 68.53993849 180.58592417 70.26183288 181.93403637 71.98297703 C182.60390576 72.83847142 182.60390576 72.83847142 183.28730786 73.71124852 C187.38271508 78.92180296 191.56768881 84.05836001 195.79292309 89.16412938 C196.82943551 90.4272236 197.85153531 91.70225704 198.86030591 92.9876157 C200.09420534 94.52777331 201.38481901 96.02302078 202.70698559 97.48810399 C208.69458664 104.61939665 209.71110649 110.76904906 209.38227856 119.84064305 C209.30944054 121.90900018 209.30024062 123.97011229 209.30122387 126.03961766 C209.10617847 144.55500886 202.77151299 161.10839435 189.65278637 174.31110203 C181.63322243 181.86320435 169.81836569 190.10797703 158.55903637 190.10797703 C158.88903637 196.70797703 159.21903637 203.30797703 159.55903637 210.10797703 C161.00278637 209.69547703 162.44653637 209.28297703 163.93403637 208.85797703 C170.63169598 206.94436 176.36894903 210.40797683 182.19331372 213.51178563 C185.00598405 215.11016182 187.78527501 216.75552094 190.55903637 218.42047703 C192.6573246 219.66639794 194.75630959 220.91114599 196.85591137 222.15485203 C197.94323559 222.80002781 199.03055981 223.4452036 200.15083325 224.10993016 C203.66826168 226.17200998 207.20932729 228.18600111 210.76216137 230.18610203 C211.95106541 230.85869204 213.13986852 231.53146046 214.32856762 232.20441258 C216.60815024 233.49211452 218.89187572 234.77251626 221.18013012 236.04474461 C222.21782544 236.63408787 223.25552075 237.22343113 224.32466137 237.83063328 C225.24021801 238.34376072 226.15577466 238.85688817 227.09907544 239.38556492 C230.43772349 241.72321498 232.73699812 244.46390053 234.55903637 248.10797703 C234.6819444 250.34746699 234.7393716 252.59063856 234.76777661 254.83331883 C234.77756039 255.52462391 234.78734417 256.215929 234.79742444 256.92818272 C234.82739104 259.22116749 234.84877078 261.51409369 234.86763012 263.80719578 C234.87420195 264.59096907 234.88077378 265.37474236 234.88754475 266.18226635 C234.92014884 270.33351028 234.94459334 274.48472847 234.96406567 278.6360532 C234.98185742 282.0670991 235.01663993 285.49731977 235.06660473 288.92804539 C235.12691024 293.07368175 235.15755572 297.21855479 235.16723835 301.36460888 C235.17577939 302.94145981 235.1945645 304.51829108 235.22398198 306.09489071 C235.46891947 319.97291664 235.46891947 319.97291664 231.88691723 324.39996922 C229.07686639 326.9431256 226.01180977 328.97115975 222.69184887 330.79938328 C221.56971997 331.42764012 220.44759106 332.05589695 219.29145825 332.70319188 C218.08905442 333.35908218 216.8865789 334.01484106 215.68403637 334.67047703 C214.44163423 335.36114214 213.2001081 336.05338523 211.959427 336.74713719 C210.05533393 337.81163887 208.15076736 338.87515126 206.24330151 339.93359959 C199.78951024 343.51688941 193.42223553 347.24116388 187.05903637 350.98297703 C185.11179385 352.12735408 183.16393108 353.27067676 181.21528637 354.41266453 C180.40897778 354.8868784 179.60266919 355.36109227 178.771927 355.84967625 C175.026556 357.97938081 172.42568275 359.38788557 168.05903637 359.35797703 C167.30622387 359.36313328 166.55341137 359.36828953 165.77778637 359.37360203 C163.55903637 359.10797703 163.55903637 359.10797703 159.55903637 357.10797703 C159.22903637 364.69797703 158.89903637 372.28797703 158.55903637 380.10797703 C160.62153637 380.02547703 162.68403637 379.94297703 164.80903637 379.85797703 C176.10930515 379.91493403 184.25815721 382.6514346 192.42622387 390.59625828 C199.14659527 398.51054182 200.93849484 406.58920907 200.83638012 416.72125828 C200.16545963 424.91404798 196.25916362 432.24426998 190.55903637 438.10797703 C183.70841124 443.64259339 177.43831227 446.35496563 168.5392648 446.36524594 C167.85323473 446.36875201 167.16720466 446.37225809 166.4603858 446.37587041 C164.16264201 446.3851709 161.86515243 446.38026464 159.56739819 446.37540257 C157.90292534 446.37913952 156.23845425 446.38374122 154.57398593 446.38913321 C150.00059223 446.40137321 145.42727162 446.40110157 140.85386527 446.39874446 C135.92120655 446.39833655 130.98857135 446.40937305 126.05592358 446.4188596 C116.39190413 446.43547621 106.72790908 446.44096945 97.06387654 446.44208436 C89.20845662 446.44303455 81.35304475 446.44714339 73.49762738 446.45348561 C51.22736734 446.47110005 28.95712658 446.4803242 6.68685952 446.47882466 C4.88576968 446.47870479 4.88576968 446.47870479 3.04829419 446.4785825 C1.84610193 446.47850074 0.64390968 446.47841898 -0.59471264 446.47833474 C-20.07771951 446.47752185 -39.56064905 446.49665978 -59.04363355 446.52485923 C-79.04735682 446.55358398 -99.05104238 446.56739974 -119.0547868 446.56567168 C-130.28585834 446.56500763 -141.51684883 446.57050679 -152.7479018 446.59202778 C-162.31051208 446.6102342 -171.87300459 446.61459134 -181.43562469 446.60100894 C-186.31382959 446.59447651 -191.19180851 446.59437206 -196.06999195 446.61171544 C-200.53856875 446.62743901 -205.00674026 446.62458981 -209.47530714 446.60714717 C-211.08902497 446.6040757 -212.702773 446.60771523 -214.31645522 446.61886732 C-225.8778172 446.6934547 -236.73651777 445.49240649 -245.44096363 437.10797703 C-251.93361991 429.25247544 -255.06404943 421.07170357 -254.72221363 410.87360203 C-253.78812619 401.68840894 -250.41526052 394.56664559 -243.51908863 388.38532078 C-231.50743116 378.91100956 -221.43814076 380.10797703 -205.44096363 380.10797703 C-205.44096363 318.06797703 -205.44096363 256.02797703 -205.44096363 192.10797703 C-210.06096363 191.11797703 -214.68096363 190.12797703 -219.44096363 189.10797703 C-236.60180449 182.95282164 -249.43196016 169.418611 -257.15580738 153.14703953 C-260.75095489 144.6454445 -262.09144067 136.29089832 -262.44096363 127.10797703 C-262.46819507 126.42300145 -262.49542652 125.73802586 -262.52348316 125.03229344 C-262.60211325 122.78663764 -262.65130519 120.54213947 -262.69096363 118.29547703 C-262.72323047 117.23755955 -262.72323047 117.23755955 -262.75614917 116.15827 C-262.80846708 107.78937864 -259.36506218 102.48698774 -254.00346363 96.54547703 C-252.92514446 95.31908523 -251.84702522 94.09251761 -250.76908863 92.86578953 C-250.21801441 92.24478367 -249.66694019 91.62377781 -249.09916675 90.9839536 C-246.45252154 87.98972188 -243.85263253 84.95591107 -241.25346363 81.92047703 C-240.75072925 81.33508152 -240.24799488 80.74968602 -239.73002613 80.14655125 C-236.7714957 76.69331891 -233.86722695 73.20314858 -231.00346363 69.67047703 C-225.84909571 63.32520823 -220.46733597 57.18288255 -215.10063159 51.017645 C-208.98017903 43.97525312 -202.88066026 36.91794902 -197.00346363 29.67047703 C-191.8204267 23.28626184 -186.41786293 17.09404532 -180.99809253 10.91071141 C-179.92212199 9.66502836 -178.86282315 8.40481912 -177.81742847 7.13336766 C-177.0335979 6.18493992 -177.0335979 6.18493992 -176.23393238 5.21735203 C-175.76882251 4.64468602 -175.30371265 4.07202 -174.82450855 3.48200047 C-172.0759922 0.75239927 -168.90934619 0.9749421 -165.26522815 0.94975865 C-164.1876767 0.93996794 -163.11012525 0.93017724 -161.99992073 0.92008984 C-160.81217143 0.91433627 -159.62442213 0.90858269 -158.40068042 0.90265477 C-156.51414768 0.88783086 -156.51414768 0.88783086 -154.58950317 0.87270749 C-151.09547126 0.84549482 -147.60142563 0.82455287 -144.10734499 0.80472982 C-141.11824109 0.78698925 -138.12916741 0.7656418 -135.14008772 0.7442537 C-125.32320785 0.67404582 -115.50627302 0.61562297 -105.68930089 0.56003487 C-103.13835934 0.54553329 -100.58741942 0.53077197 -98.03647983 0.51592839 C-77.79323186 0.39831311 -57.54994075 0.29358943 -37.30657077 0.19938004 C-24.87098915 0.1414223 -12.43549327 0.07446727 0 0 Z M-63.94096363 17.60797703 C-64.95292615 17.62591376 -64.95292615 17.62591376 -65.98533237 17.64421284 C-74.1373928 17.78953598 -82.28926133 17.94381337 -90.44096363 18.10797703 C-90.68807086 19.11506215 -90.68807086 19.11506215 -90.94017017 20.14249241 C-91.70298357 23.24373219 -92.4703869 26.34381947 -93.23783863 29.44391453 C-93.49677906 30.49957615 -93.75571949 31.55523777 -94.02250659 32.64288914 C-99.71466452 55.57893725 -108.14022243 77.4888863 -120.82377613 97.50250828 C-122.52885744 99.73849114 -122.52885744 99.73849114 -122.44096363 101.10797703 C-60.07096363 101.10797703 2.29903637 101.10797703 66.55903637 101.10797703 C65.10260058 97.46688756 63.61679346 94.38811938 61.6403352 91.04791844 C50.16056449 71.57763924 42.76077142 50.3977051 37.38325512 28.53375828 C37.10977246 27.4305222 36.83628979 26.32728611 36.55451977 25.19061863 C35.88712009 22.49694976 35.22200892 19.80273829 34.55903637 17.10797703 C25.16321839 17.07666498 15.76739752 17.05675626 6.37153637 17.04547703 C5.30964596 17.04419301 5.30964596 17.04419301 4.22630322 17.04288304 C-18.50053461 17.0186743 -41.21771183 17.20499238 -63.94096363 17.60797703 Z M51.55903637 17.10797703 C54.66414922 31.81174353 54.66414922 31.81174353 59.05903637 46.17047703 C59.5611665 47.58985569 59.5611665 47.58985569 60.07344067 49.03790867 C66.61416355 66.92720288 74.83624567 87.38518633 88.55903637 101.10797703 C91.51178552 101.29629176 94.37006491 101.35964974 97.32319653 101.33502781 C98.6842577 101.33546589 98.6842577 101.33546589 100.07281506 101.33591282 C103.08133924 101.33451601 106.0896178 101.31893831 109.09809887 101.30328953 C111.18032203 101.29956065 113.26254693 101.29671309 115.34477246 101.29471409 C120.83244154 101.28706781 126.32000521 101.26741078 131.80763257 101.24530613 C137.40444016 101.22486912 143.00126474 101.21571697 148.59809887 101.20563328 C159.58512442 101.18416582 170.57207164 101.1500179 181.55903637 101.10797703 C180.27044514 98.47010412 178.98121362 96.20648656 177.12544262 93.92828953 C176.40820019 93.04089085 176.40820019 93.04089085 175.67646801 92.13556492 C175.16334057 91.50771092 174.65021313 90.87985692 174.12153637 90.23297703 C173.02720874 88.88057965 171.93347122 87.52770458 170.84028637 86.17438328 C170.28856762 85.49263035 169.73684887 84.81087742 169.16841137 84.10846531 C166.78998664 81.15203142 164.45563782 78.16193239 162.12153637 75.17047703 C158.14027303 70.07848319 154.08581625 65.05104193 149.99653637 60.04547703 C146.10927989 55.28618521 142.28563943 50.49423614 138.55903637 45.60797703 C132.73205634 37.96900649 126.67020935 30.52090528 120.55903637 23.10797703 C119.97138501 22.0552158 119.38373364 21.00245457 118.77827466 19.91779149 C116.79699252 17.5705846 115.71087186 17.13513067 112.6393739 16.58583653 C108.77447088 16.41139102 104.93609317 16.43317395 101.07075512 16.52203953 C99.64302366 16.53323841 98.21526904 16.54177534 96.78750622 16.54776585 C93.04026483 16.57061104 89.29443195 16.6294929 85.54774487 16.69598973 C81.72032232 16.75750786 77.89267081 16.78480093 74.06489575 16.81500828 C66.56230236 16.87924392 59.06086716 16.98156664 51.55903637 17.10797703 Z M-173.44096363 28.10797703 C-174.84926038 29.84396726 -176.26497491 31.57398989 -177.69096363 33.29547703 C-178.4308855 34.20942235 -179.17080738 35.12336766 -179.93315113 36.06500828 C-183.38072226 40.24827606 -186.94045375 44.32936213 -190.5002898 48.41705906 C-194.48737583 52.9984105 -198.42881868 57.61508146 -202.34233081 62.25934422 C-205.72578306 66.27181881 -209.14195759 70.25508766 -212.56596363 74.23297703 C-216.92360292 79.29897698 -221.18578512 84.43233713 -225.39408863 89.62360203 C-227.9292725 92.70065727 -230.55927155 95.68387472 -233.22611988 98.64703953 C-234.54752616 99.91945146 -234.54752616 99.91945146 -234.44096363 101.10797703 C-222.73219748 101.40975126 -211.02436199 101.64044948 -199.31249321 101.78153527 C-193.87336542 101.84926774 -188.43690536 101.94105049 -182.99931324 102.08868992 C-177.74708499 102.23039693 -172.49741423 102.30775853 -167.24342144 102.34138119 C-165.24365897 102.36532497 -163.24403022 102.41208998 -161.24536312 102.48246777 C-151.00974272 103.23350799 -151.00974272 103.23350799 -141.72564495 99.83661664 C-138.4501378 96.37531559 -136.44450157 92.4189516 -134.44096363 88.10797703 C-133.60400556 86.71775748 -132.7542614 85.33483082 -131.87455738 83.97125828 C-131.19973537 82.79303103 -130.534223 81.60941935 -129.87846363 80.42047703 C-129.51116138 79.75588475 -129.14385913 79.09129246 -128.76542652 78.40656102 C-122.264402 66.42496482 -117.2619474 54.1380513 -113.06596363 41.17047703 C-112.73201587 40.14059666 -112.39806812 39.11071629 -112.05400074 38.04962742 C-109.98973011 31.45532632 -108.61408985 24.91298764 -107.44096363 18.10797703 C-114.71668159 17.87521233 -121.99158456 17.69807343 -129.27028549 17.58985531 C-132.65119781 17.53788398 -136.02954535 17.46754452 -139.4089812 17.3535825 C-143.30443355 17.23169277 -147.19629039 17.17544119 -151.09330738 17.13141453 C-152.29366123 17.07980168 -153.49401508 17.02818882 -154.73074329 16.97501194 C-164.37125419 16.96862742 -167.96315063 20.49795094 -173.44096363 28.10797703 Z M-245.44096363 118.10797703 C-245.44096363 135.61026793 -242.51540645 149.93448854 -229.95658863 162.92047703 C-218.14818117 173.18865743 -205.56611707 176.11181979 -190.38236988 175.27643406 C-178.0693756 174.20802787 -167.67617866 166.90128102 -159.44096363 158.10797703 C-149.58789626 145.27865479 -148.44096363 134.39765668 -148.44096363 118.10797703 C-180.45096363 118.10797703 -212.46096363 118.10797703 -245.44096363 118.10797703 Z M-131.44096363 118.10797703 C-131.44096363 135.8112991 -130.24058724 148.25300933 -118.40971363 161.35797703 C-107.22055867 172.06064699 -94.02924891 175.75501272 -78.96440113 175.42047703 C-67.88643773 174.86588562 -58.85159862 170.01529715 -50.75346363 162.67047703 C-49.60877613 161.40203953 -49.60877613 161.40203953 -48.44096363 160.10797703 C-47.71973316 159.375145 -47.71973316 159.375145 -46.98393238 158.62750828 C-36.04896331 146.9727691 -35.44096363 133.5712156 -35.44096363 118.10797703 C-67.12096363 118.10797703 -98.80096363 118.10797703 -131.44096363 118.10797703 Z M-18.44096363 118.10797703 C-18.44096363 136.15136509 -16.49572761 148.93447576 -4.06596363 161.92047703 C6.29739769 171.71480187 17.7003316 175.74749121 31.90400708 175.58038914 C42.62875924 175.16392696 51.07696915 171.57131226 59.55903637 165.10797703 C60.59028637 164.36547703 61.62153637 163.62297703 62.68403637 162.85797703 C70.71333636 155.17777704 75.3953985 145.9261664 77.55903637 135.10797703 C77.55903637 129.49797703 77.55903637 123.88797703 77.55903637 118.10797703 C45.87903637 118.10797703 14.19903637 118.10797703 -18.44096363 118.10797703 Z M94.55903637 118.10797703 C94.55903637 137.25431901 97.28075191 149.25309316 110.46919262 163.11578953 C120.61872366 172.74429742 133.65142222 175.74673841 147.26606762 175.41657078 C159.75812488 174.75359219 171.52073498 168.10628428 180.00044262 159.05719578 C190.49874217 145.92774347 191.55903637 135.23804778 191.55903637 118.10797703 C159.54903637 118.10797703 127.53903637 118.10797703 94.55903637 118.10797703 Z M-140.44096363 160.10797703 C-141.57879456 161.60871839 -142.71298109 163.11235826 -143.82890308 164.62946141 C-155.59088539 180.44917644 -169.60953819 186.97213373 -188.44096363 192.10797703 C-188.44096363 254.14797703 -188.44096363 316.18797703 -188.44096363 380.10797703 C-166.00096363 380.10797703 -143.56096363 380.10797703 -120.44096363 380.10797703 C-119.78096363 374.16797703 -119.12096363 368.22797703 -118.44096363 362.10797703 C-113.08307744 342.81958675 -103.64691027 327.57748013 -86.22953784 317.10553563 C-72.67654894 309.54649759 -58.80063238 307.7957797 -43.45268238 307.80719578 C-42.15127811 307.80291066 -40.84987384 307.79862553 -39.50903308 307.79421055 C-36.77186459 307.78681204 -34.0348252 307.78699232 -31.29765308 307.7923032 C-27.83536856 307.79808416 -24.37362142 307.78116919 -20.91142547 307.75795853 C-17.55015832 307.73945492 -14.18899975 307.74341106 -10.82768238 307.74469578 C-8.99882747 307.73088116 -8.99882747 307.73088116 -7.133026 307.71678746 C13.6146297 307.82617694 32.1116967 314.22326047 47.43403637 328.48297703 C61.05774452 343.11834668 64.94854186 360.78204281 66.55903637 380.10797703 C91.30903637 380.10797703 116.05903637 380.10797703 141.55903637 380.10797703 C141.55903637 368.88797703 141.55903637 357.66797703 141.55903637 346.10797703 C132.89779392 338.99526702 132.89779392 338.99526702 123.75434887 334.53766453 C118.75846904 332.60712997 114.2712456 330.45916367 109.74653637 327.60797703 C108.79134106 327.06141453 107.83614575 326.51485203 106.85200512 325.95172703 C103.13270683 322.96108173 101.72733613 319.54939842 101.17808545 314.84528172 C101.17569867 313.66868992 101.17331189 312.49209813 101.17085278 311.27985203 C101.16296734 310.29813023 101.16296734 310.29813023 101.1549226 309.29657567 C101.14180381 307.15012764 101.15043101 305.00443156 101.16059887 302.85797703 C101.15857579 301.35634799 101.15566239 299.85471991 101.15190136 298.35309422 C101.14748904 295.21269917 101.1538736 292.07256088 101.16792309 288.93219578 C101.1850146 284.91731907 101.17516752 280.9030441 101.1572057 276.88818944 C101.14633816 273.78940921 101.14982775 270.69077043 101.15758908 267.59198582 C101.15958289 266.112086 101.1571607 264.63217312 101.15015042 263.15228856 C101.14248652 261.07988294 101.15420727 259.00843664 101.17085278 256.93610203 C101.17323956 255.75951024 101.17562634 254.58291844 101.17808545 253.37067235 C101.74420286 248.52209872 103.34506817 245.23136183 106.92134106 241.92194188 C109.48008329 240.16227372 112.04345577 238.58425758 114.76216137 237.08453953 C115.74313794 236.53797703 116.7241145 235.99141453 117.73481762 235.42828953 C118.74930981 234.86883641 119.763802 234.30938328 120.80903637 233.73297703 C123.80283346 232.07962845 126.78669742 230.41912615 129.74287426 228.69928563 C132.55903637 227.10797703 132.55903637 227.10797703 135.27949536 225.87994969 C137.97815938 224.5121446 139.66240779 223.47606465 141.55903637 221.10797703 C142.64728387 216.12888248 142.41107733 211.2856791 142.12153637 206.23297703 C142.07634536 204.86331676 142.0352887 203.49351346 141.9984895 202.12360203 C141.89257494 198.78140931 141.74479365 195.44652746 141.55903637 192.10797703 C140.16817822 191.92948216 140.16817822 191.92948216 138.74922192 191.74738133 C121.74917238 189.46303088 104.86354089 183.73669755 93.78559887 169.77594578 C92.9113245 168.62112068 92.04413536 167.46089817 91.18403637 166.29547703 C90.50921216 165.39925633 90.50921216 165.39925633 89.82075512 164.48493016 C88.72717068 163.03069552 87.64217901 161.57000554 86.55903637 160.10797703 C86.00216137 160.81309422 85.44528637 161.51821141 84.87153637 162.24469578 C73.06926672 176.85797899 59.87743068 188.32032995 40.55903637 191.10797703 C19.92651787 192.46378059 1.79187006 189.2746188 -14.31596363 175.29547703 C-19.12399896 170.71270837 -22.93335439 165.73451745 -26.44096363 160.10797703 C-29.11688617 162.67986803 -31.35341154 165.27660594 -33.50346363 168.29547703 C-40.94676945 177.90382086 -50.20290779 183.76315247 -61.44096363 188.10797703 C-62.26467456 188.44828953 -63.0883855 188.78860203 -63.93705738 189.13922703 C-79.17071607 194.40397948 -97.43814356 192.00657974 -111.82768238 185.60016453 C-123.08863499 179.97622769 -130.89032534 172.54543238 -137.94486988 162.19782078 C-138.43858081 161.50817235 -138.93229175 160.81852391 -139.44096363 160.10797703 C-139.77096363 160.10797703 -140.10096363 160.10797703 -140.44096363 160.10797703 Z M161.64106762 228.85407078 C160.64011059 229.44043309 159.63915356 230.02679539 158.6078645 230.63092625 C157.53987622 231.26272801 156.47188794 231.89452977 155.37153637 232.54547703 C153.75215161 233.49704686 153.75215161 233.49704686 152.100052 234.46784031 C143.89055065 239.29919312 135.7063963 244.17255708 127.55903637 249.10797703 C130.82623557 251.85592034 133.9760871 253.9967755 137.80513012 255.87750828 C138.79972241 256.37194432 139.79431469 256.86638035 140.81904614 257.3757993 C142.97073074 258.42180071 145.12630819 259.45982545 147.28535473 260.49054539 C156.61185749 264.97566105 156.61185749 264.97566105 160.44184887 267.90485203 C164.08757042 270.50254061 166.0712103 271.74296094 170.55903637 272.10797703 C177.94545939 269.63144297 184.42628456 265.15212937 190.86860669 260.8667661 C194.45581031 258.52173752 198.17076661 256.46527396 201.93403637 254.42047703 C205.95166055 252.44375803 205.95166055 252.44375803 208.55903637 249.10797703 C200.70004924 244.56935726 200.70004924 244.56935726 192.83833325 240.03546727 C192.24768078 239.69507924 191.65702832 239.35469121 191.04847729 239.00398839 C189.86396288 238.32137532 188.67943329 237.6387886 187.49488842 236.95622838 C184.25429398 235.08812132 181.0176464 233.21348387 177.78559887 231.33063328 C176.54341264 230.61057902 175.30122528 229.89052669 174.05903637 229.17047703 C173.01747387 228.5633286 171.97591137 227.95618016 170.90278637 227.33063328 C166.87982496 225.23198841 165.3688127 226.66082785 161.64106762 228.85407078 Z M117.55903637 264.10797703 C117.55903637 280.27797703 117.55903637 296.44797703 117.55903637 313.10797703 C121.53966137 315.39735203 125.52028637 317.68672703 129.62153637 320.04547703 C139.32690672 325.63611977 148.99232197 331.28270044 158.55903637 337.10797703 C160.99618849 334.67082492 160.85398589 333.90988459 161.00483716 330.55402195 C161.05052838 329.60931538 161.0962196 328.66460881 161.14329541 327.69127476 C161.17994305 326.6673412 161.2165907 325.64340764 161.25434887 324.58844578 C161.31185818 323.01236294 161.31185818 323.01236294 161.37052929 321.40444005 C161.44522107 319.17780105 161.51374193 316.9509479 161.5766145 314.72394383 C161.68334184 311.31764367 161.84359817 307.91639186 162.00434887 304.51227391 C162.07019547 302.35026386 162.13280173 300.18815221 162.19184887 298.02594578 C162.24873883 297.00808491 162.30562878 295.99022404 162.36424267 294.9415189 C162.40620215 292.11602411 162.35610093 289.82051925 161.55903637 287.10797703 C159.19968691 284.69399095 156.63546976 283.43040676 153.55903637 282.10797703 C152.73725903 281.65962498 151.91548169 281.21127293 151.068802 280.74933445 C150.37464184 280.40749119 149.68048169 280.06564793 148.96528637 279.71344578 C148.16091137 279.31448094 147.35653637 278.9155161 146.52778637 278.50446141 C145.71309887 278.10549656 144.89841137 277.70653172 144.05903637 277.29547703 C142.44438158 276.49744452 140.82980095 275.69926193 139.21528637 274.90094578 C137.34872387 273.9792661 135.48216137 273.05758641 133.55903637 272.10797703 C128.27903637 269.46797703 122.99903637 266.82797703 117.55903637 264.10797703 Z M212.11372387 267.41657078 C211.20839917 267.91149022 210.30307446 268.40640965 209.37031567 268.91632664 C207.39609661 270.01169239 205.42362731 271.11021717 203.4528352 272.2117368 C198.88045755 274.7624234 194.33615942 277.26173987 189.57856762 279.45172703 C188.4718269 279.98842015 188.4718269 279.98842015 187.34272778 280.53595555 C185.98737126 281.18869247 184.61321406 281.8042859 183.22065747 282.37335789 C181.03102561 283.34699391 181.03102561 283.34699391 178.55903637 286.10797703 C177.50792446 290.41371137 177.58497619 294.69301999 177.55903637 299.10797703 C177.51382981 300.61602385 177.46354656 302.12392478 177.40888989 303.63165867 C177.23477521 308.56055225 177.11339622 313.48994542 176.99653637 318.42047703 C176.95322233 320.14379204 176.90960456 321.86709943 176.865677 323.59039891 C176.75996924 327.76284572 176.65834607 331.93537323 176.55903637 336.10797703 C180.26249832 334.71230538 183.64617968 333.03593095 187.09419262 331.09625828 C188.15186841 330.502645 189.20954419 329.90903172 190.29927075 329.29743016 C191.39561841 328.67803563 192.49196606 328.0586411 193.62153637 327.42047703 C194.69081372 326.82041844 195.76009106 326.22035985 196.86177075 325.60211766 C199.02583533 324.38474961 201.17495288 323.14044079 203.30854809 321.8704282 C206.55903637 320.10797703 206.55903637 320.10797703 210.01655591 318.94904149 C213.93045906 317.44380535 215.91934575 316.40184075 218.55903637 313.10797703 C220.59170229 305.21777644 219.67658832 296.72252309 219.30903637 288.67047703 C219.24881554 286.39001748 219.1940675 284.10940639 219.14497387 281.82868016 C219.01300485 276.2517985 218.81252624 270.68058667 218.55903637 265.10797703 C215.87822471 265.10797703 214.46357293 266.12328834 212.11372387 267.41657078 Z M-92.21830738 344.07672703 C-100.93340388 354.89852626 -103.44096363 366.51988295 -103.44096363 380.10797703 C-96.84096363 380.10797703 -90.24096363 380.10797703 -83.44096363 380.10797703 C-82.45096363 377.46797703 -81.46096363 374.82797703 -80.44096363 372.10797703 C-76.95227711 369.78218602 -75.54377844 369.68932246 -71.44096363 370.10797703 C-69.12846363 371.17047703 -69.12846363 371.17047703 -67.44096363 373.10797703 C-66.94596363 376.57297703 -66.94596363 376.57297703 -66.44096363 380.10797703 C-40.37096363 380.10797703 -14.30096363 380.10797703 12.55903637 380.10797703 C13.21903637 377.46797703 13.87903637 374.82797703 14.55903637 372.10797703 C18.04839109 369.78174056 19.46386235 369.85725209 23.55903637 370.10797703 C24.87903637 370.43797703 26.19903637 370.76797703 27.55903637 371.10797703 C28.54903637 375.56297703 28.54903637 375.56297703 29.55903637 380.10797703 C36.15903637 380.10797703 42.75903637 380.10797703 49.55903637 380.10797703 C49.55903637 364.31608382 45.68194564 350.73456521 34.55903637 339.10797703 C20.77936477 327.21710777 6.89941801 323.79369015 -10.90190113 323.80719578 C-12.16885822 323.80291066 -13.43581531 323.79862553 -14.74116504 323.79421055 C-17.40881919 323.78849293 -20.07608314 323.78700091 -22.743698 323.7923032 C-26.12786991 323.79808985 -29.51149306 323.78116122 -32.89557445 323.75795853 C-36.16851131 323.73950905 -39.44142177 323.74340992 -42.71440113 323.74469578 C-43.91164814 323.73548604 -45.10889514 323.72627629 -46.34242237 323.71678746 C-64.92042409 323.81758392 -79.74169598 330.25648057 -92.21830738 344.07672703 Z M-232.44096363 401.10797703 C-236.60368431 406.338062 -237.9969151 410.4365593 -237.44096363 417.10797703 C-235.31523769 422.64179618 -231.77660092 426.44015838 -226.44096363 429.10797703 C-224.28921894 429.20696198 -222.13431485 429.23900901 -219.98029697 429.24219811 C-218.96904015 429.24572646 -218.96904015 429.24572646 -217.93735391 429.24932608 C-215.65596884 429.25603532 -213.37464047 429.25555728 -211.09324634 429.25514805 C-209.45000015 429.25844548 -207.80675478 429.26217079 -206.16351044 429.26628953 C-201.63038365 429.27633141 -197.0972701 429.28002983 -192.56413376 429.28267884 C-187.68193055 429.28657542 -182.79973788 429.29615418 -177.91754138 429.30489171 C-166.11846844 429.32467427 -154.3193946 429.33472452 -142.52030921 429.3436195 C-136.96827875 429.34799939 -131.41624925 429.35336697 -125.86421955 429.35860837 C-107.41553305 429.3756223 -88.96684716 429.39011748 -70.51815403 429.39735711 C-65.72826373 429.3992671 -60.93837344 429.40118742 -56.14848316 429.40314305 C-54.95793273 429.40362679 -53.7673823 429.40411053 -52.54075459 429.40460893 C-33.24555726 429.41291294 -13.95042186 429.4382554 5.34474841 429.47072373 C25.14039918 429.50376352 44.93601846 429.52180307 64.73169696 429.52500135 C75.85204146 429.52716928 86.97229566 429.53595934 98.09261334 429.56146252 C107.56137271 429.58312746 117.03001986 429.59124071 126.4988012 429.58149574 C131.3319321 429.57693883 136.16483126 429.57891776 140.99793065 429.59825718 C145.42080839 429.61580266 149.84328384 429.61496164 154.26616535 429.59935989 C155.86782165 429.59697066 157.46950518 429.6013751 159.0711197 429.61318854 C161.24623947 429.62824079 163.41992146 429.6186833 165.59500515 429.60296166 C166.80370998 429.60393847 168.01241481 429.60491528 169.25774705 429.60592169 C174.38457327 428.83262512 177.45773976 426.32833274 180.87153637 422.54547703 C183.78569059 418.33614316 184.32532932 414.10670197 183.55903637 409.10797703 C181.44581388 403.6471731 178.5912941 400.54733413 173.24792206 397.96692574 C167.28940036 396.06351105 160.85371155 396.56193376 154.65510571 396.60004246 C153.024601 396.5954307 151.39410046 396.58907593 149.76360857 396.58113348 C145.293393 396.56445483 140.82351955 396.57267985 136.35330284 396.58507836 C131.52840938 396.59413251 126.70357454 396.5801573 121.87869275 396.56915867 C112.43081599 396.55137279 102.98306635 396.55521376 93.53518462 396.56680924 C85.85665711 396.575843 78.17816521 396.5770678 70.49963391 396.57271397 C69.40675992 396.57210104 68.31388593 396.57148811 67.18789455 396.5708566 C64.96773766 396.5695777 62.74758079 396.56828085 60.52742392 396.56696624 C39.70930853 396.55556023 18.89126359 396.56867448 -1.92684025 396.5901677 C-19.78949348 396.60803869 -37.65204274 396.60493459 -55.51469409 396.58649266 C-76.25834717 396.56508632 -97.00193848 396.55665887 -117.74560106 396.56894171 C-119.95758775 396.57021591 -122.16957445 396.57147339 -124.38156116 396.57271397 C-125.46989912 396.57333107 -126.55823707 396.57394818 -127.67955497 396.57458398 C-135.34880364 396.57803758 -143.01801314 396.57220829 -150.68725574 396.56279576 C-160.03359566 396.55157705 -169.3798012 396.55461319 -178.72612572 396.57591873 C-183.49472508 396.58643082 -188.2631004 396.59054822 -193.03169811 396.57732213 C-197.39771885 396.56539576 -201.76330805 396.57196479 -206.12928969 396.59323233 C-207.70791298 396.59769736 -209.28657279 396.59543433 -210.86517256 396.58572918 C-222.25091488 396.4884343 -222.25091488 396.4884343 -232.44096363 401.10797703 Z " fill="#000000" transform="translate(269.4409636259079,32.89202296733856)"/>
<path d="M0 0 C10.85254304 11.28740104 16.1921425 25.70087703 16.34765625 41.26953125 C15.59556307 57.90729985 9.05649213 72.609535 -3.19140625 83.94140625 C-14.5654231 93.63087099 -29.75359182 98.35003155 -44.53125 97.5390625 C-60.33717694 96.11080463 -73.69575098 89.72957403 -84.73828125 78.171875 C-96.47638102 63.58746247 -99.23699995 48.06260442 -97.6875 29.75 C-95.29778891 15.82424314 -87.60297349 3.59837429 -76.6875 -5.25 C-69.04161558 -10.64856818 -60.95131691 -14.58109863 -51.6875 -16.25 C-50.52927734 -16.47816406 -50.52927734 -16.47816406 -49.34765625 -16.7109375 C-30.97954471 -19.46156984 -13.25430669 -12.54741033 0 0 Z M-69.87109375 11.8046875 C-79.00273405 21.5843797 -81.47287377 31.61296934 -81.03515625 44.65234375 C-80.69968111 49.92254999 -79.29762516 54.16596769 -76.6875 58.75 C-76.275 59.51570313 -75.8625 60.28140625 -75.4375 61.0703125 C-69.55733605 70.92626912 -60.71680944 76.94890554 -49.6875 79.75 C-39.39507384 82.13664954 -28.75301847 79.96678444 -19.75 74.5625 C-10.30722479 67.9345315 -4.04244639 59.15636785 -1.3125 47.875 C0.40488808 37.33948467 -1.49044851 27.37807092 -7.19140625 18.375 C-14.39859922 8.47556094 -23.24462292 2.72878472 -35.22265625 0.21875 C-48.27137484 -1.6010396 -60.33296558 2.90243454 -69.87109375 11.8046875 Z " fill="#000000" transform="translate(283.6875,238.25)"/>
</svg>
